<?xml version="1.0" encoding="utf-8"?>
<!-- Generator: Adobe Illustrator 26.3.1, SVG Export Plug-In . SVG Version: 6.00 Build 0)  -->
<svg version="1.1"
	 id="Layer_1" xmlns:svg="http://www.w3.org/2000/svg" xmlns:sodipodi="http://sodipodi.sourceforge.net/DTD/sodipodi-0.dtd" xmlns:inkscape="http://www.inkscape.org/namespaces/inkscape" sodipodi:docname="base_logo_transparent_background.svg" inkscape:version="1.2.1 (9c6d41e4, 2022-07-14)"
	 xmlns="http://www.w3.org/2000/svg" xmlns:xlink="http://www.w3.org/1999/xlink" x="0px" y="0px" viewBox="0 0 315 105.8"
	 style="enable-background:new 0 0 315 105.8;" xml:space="preserve">
<style type="text/css">
	.st0{fill:#FFFFFF;}
	.st1{fill-rule:evenodd;clip-rule:evenodd;fill:#FFFFFF;}
</style>
<sodipodi:namedview  bordercolor="#000000" borderopacity="0.25" id="namedview61" inkscape:current-layer="Layer_1" inkscape:cx="120.68987" inkscape:cy="53.388278" inkscape:deskcolor="#d1d1d1" inkscape:pagecheckerboard="0" inkscape:pageopacity="0.0" inkscape:showpageshadow="2" inkscape:window-height="969" inkscape:window-maximized="0" inkscape:window-width="1390" inkscape:window-x="1844" inkscape:window-y="25" inkscape:zoom="1.545283" pagecolor="#ffffff" showgrid="false">
	</sodipodi:namedview>
<path id="path4" class="st0" d="M26.3,82.2v-5.5h1.3v7.5H26l-3.3-5.5v5.5h-1.3v-7.5H23L26.3,82.2z"/>
<path id="path6" class="st0" d="M38.7,76.7c0.6,0,1.1,0.1,1.6,0.3c0.5,0.2,0.8,0.5,1.1,0.8c0.3,0.3,0.5,0.8,0.7,1.2s0.2,0.9,0.2,1.4
	s-0.1,1-0.2,1.4c-0.2,0.5-0.4,0.9-0.7,1.2c-0.3,0.4-0.7,0.7-1.2,0.9s-1,0.3-1.6,0.3c-0.6,0-1.1-0.1-1.6-0.3
	c-0.5-0.2-0.8-0.5-1.1-0.8c-0.3-0.3-0.5-0.8-0.7-1.2s-0.2-0.9-0.2-1.4c0-0.5,0.1-1,0.2-1.5s0.4-0.9,0.7-1.2c0.3-0.3,0.7-0.6,1.1-0.8
	C37.6,76.8,38.2,76.7,38.7,76.7z M38.7,83.2c0.4,0,0.8-0.1,1-0.2s0.5-0.3,0.7-0.6c0.2-0.2,0.3-0.5,0.4-0.9s0.1-0.7,0.1-1.1
	c0-0.4,0-0.8-0.1-1.1s-0.2-0.6-0.4-0.9S40,78.1,39.7,78s-0.6-0.2-1-0.2c-0.4,0-0.7,0.1-1,0.2s-0.5,0.3-0.7,0.6
	c-0.2,0.2-0.3,0.5-0.4,0.8c-0.1,0.3-0.1,0.7-0.1,1.1c0,0.9,0.2,1.6,0.6,2.1C37.4,83,38,83.2,38.7,83.2z"/>
<path id="path8" class="st0" d="M54.2,82.4l2.5-5.7h1.5v7.5h-1.3v-4.9l-2.1,4.9h-1l-2.2-4.9v4.9h-1.3v-7.5h1.5L54.2,82.4z"/>
<path id="path10" class="st0" d="M72.4,84.2H71L70.1,82h-2.8l-0.8,2.2h-1.4l2.9-7.5h1.1L72.4,84.2z M67.7,81h2.1l-1.1-2.7L67.7,81z"
	/>
<path id="path12" class="st0" d="M79,76.7c0.1,0,0.2,0,0.5,0c0.2,0,0.4,0,0.7,0s0.5,0,0.7,0s0.4,0,0.5,0c0.7,0,1.3,0.1,1.8,0.2
	c0.5,0.2,0.9,0.4,1.2,0.6c0.4,0.3,0.7,0.8,0.9,1.3c0.2,0.5,0.3,1.1,0.3,1.8c0,0.5-0.1,1-0.2,1.4c-0.1,0.4-0.3,0.8-0.7,1.2
	c-0.3,0.3-0.8,0.6-1.3,0.8s-1.3,0.3-2.2,0.3c-0.3,0-0.7,0-1,0c-0.4,0-0.7-0.1-1.1-0.1L79,76.7L79,76.7z M81.4,83.2
	c0.9,0,1.6-0.2,2-0.7c0.4-0.4,0.6-1.2,0.6-2.1c0-0.4,0-0.8-0.1-1.2s-0.2-0.6-0.4-0.8c-0.2-0.2-0.5-0.4-0.8-0.5
	c-0.4-0.1-0.8-0.2-1.3-0.2c-0.1,0-0.2,0-0.4,0s-0.4,0-0.6,0v5.4c0.2,0,0.4,0,0.6,0C81.1,83.2,81.3,83.2,81.4,83.2z"/>
<path id="path14" class="st0" d="M93.4,78.5c0,0.2,0,0.3,0.1,0.4c0.1,0.1,0.2,0.2,0.3,0.3c0.1,0.1,0.3,0.2,0.5,0.2s0.4,0.1,0.6,0.2
	c0.3,0.1,0.5,0.2,0.8,0.3c0.3,0.1,0.5,0.3,0.7,0.5s0.4,0.4,0.5,0.7s0.2,0.6,0.2,1c0,0.4-0.1,0.8-0.2,1s-0.3,0.5-0.6,0.7
	c-0.2,0.2-0.5,0.3-0.9,0.4c-0.3,0.1-0.7,0.1-1,0.1c-0.5,0-1-0.1-1.4-0.2c-0.4-0.1-0.8-0.3-1.1-0.4l0.3-1.2c0.3,0.2,0.6,0.4,1,0.5
	c0.3,0.1,0.8,0.2,1.2,0.2c0.5,0,0.8-0.1,1.1-0.2c0.2-0.2,0.3-0.4,0.3-0.7c0-0.2-0.1-0.4-0.2-0.6c-0.1-0.2-0.2-0.3-0.4-0.4
	c-0.2-0.1-0.3-0.2-0.5-0.3c-0.2-0.1-0.3-0.1-0.5-0.2c-0.2-0.1-0.5-0.2-0.7-0.3c-0.2-0.1-0.5-0.2-0.7-0.4c-0.2-0.2-0.4-0.4-0.5-0.6
	c-0.1-0.3-0.2-0.6-0.2-1c0-0.4,0.1-0.7,0.2-0.9c0.1-0.2,0.3-0.4,0.5-0.6c0.2-0.2,0.5-0.3,0.8-0.3c0.3-0.1,0.6-0.1,0.9-0.1
	c0.4,0,0.8,0,1.2,0.1c0.4,0.1,0.7,0.2,1,0.3l-0.3,1.2c-0.1-0.1-0.3-0.2-0.4-0.2c-0.2-0.1-0.3-0.1-0.5-0.2c-0.2,0-0.3-0.1-0.5-0.1
	c-0.2,0-0.3,0-0.5,0c-0.3,0-0.6,0.1-0.8,0.2C93.5,78,93.4,78.2,93.4,78.5z"/>
<path id="path16" class="st0" d="M114.2,76.7c0.6,0,1.1,0.1,1.6,0.3c0.4,0.2,0.8,0.5,1.1,0.8s0.5,0.8,0.7,1.2
	c0.2,0.5,0.2,0.9,0.2,1.4s-0.1,1-0.2,1.4c-0.2,0.5-0.4,0.9-0.7,1.2c-0.3,0.4-0.7,0.7-1.2,0.9c-0.5,0.2-1,0.3-1.6,0.3
	c-0.6,0-1.1-0.1-1.6-0.3c-0.4-0.2-0.8-0.5-1.1-0.8c-0.3-0.3-0.5-0.8-0.7-1.2s-0.2-0.9-0.2-1.4c0-0.5,0.1-1,0.2-1.5
	c0.2-0.5,0.4-0.9,0.7-1.2c0.3-0.3,0.7-0.6,1.1-0.8S113.6,76.7,114.2,76.7L114.2,76.7z M114.1,83.2c0.4,0,0.8-0.1,1.1-0.2
	c0.3-0.1,0.5-0.3,0.7-0.6c0.2-0.2,0.3-0.5,0.4-0.9c0.1-0.3,0.1-0.7,0.1-1.1c0-0.4-0.1-0.8-0.1-1.1s-0.2-0.6-0.4-0.9
	c-0.2-0.2-0.4-0.4-0.7-0.6c-0.3-0.1-0.6-0.2-1-0.2c-0.4,0-0.7,0.1-1,0.2s-0.5,0.3-0.7,0.6c-0.2,0.2-0.3,0.5-0.4,0.8
	c-0.1,0.3-0.1,0.7-0.1,1.1c0,0.9,0.2,1.6,0.6,2.1C112.9,83,113.4,83.2,114.1,83.2z"/>
<path id="path18" class="st0" d="M128.4,80.8h-2.1v3.4H125v-7.5h4.3v1.1h-3v1.8h2.1V80.8z"/>
<path id="path20" class="st0" d="M146,80.8h-2.3V83h3.2v1.1h-4.5v-7.5h4.3v1.1h-3v1.8h2.3L146,80.8z"/>
<path id="path22" class="st0" d="M158.7,82.2v-5.5h1.3v7.5h-1.6l-3.3-5.5v5.5h-1.3v-7.5h1.6L158.7,82.2z"/>
<path id="path24" class="st0" d="M172.4,77.8h-2.2v6.3h-1.3v-6.3h-2.2v-1.1h5.6L172.4,77.8L172.4,77.8z"/>
<path id="path26" class="st0" d="M182.4,80.8h-2.3V83h3.2v1.1h-4.5v-7.5h4.3v1.1h-3v1.8h2.3L182.4,80.8L182.4,80.8z"/>
<path id="path28" class="st0" d="M192.1,81c-0.1,0-0.2,0-0.2,0s-0.2,0-0.3,0v3.2h-1.3v-7.5c0.1,0,0.3,0,0.4,0c0.2,0,0.3,0,0.5,0
	s0.3,0,0.4,0s0.2,0,0.3,0c1,0,1.7,0.2,2.2,0.6s0.8,0.9,0.8,1.6c0,0.4-0.1,0.8-0.3,1.2c-0.2,0.3-0.6,0.6-1.1,0.8l2.7,3.4h-1.5
	L192.1,81z M192,77.7c-0.1,0-0.1,0-0.2,0s-0.2,0-0.3,0v2.2h0.7c0.4,0,0.7-0.1,0.9-0.3c0.2-0.2,0.3-0.5,0.3-0.9
	c0-0.3-0.1-0.6-0.3-0.8C193,77.8,192.6,77.7,192,77.7z"/>
<path id="path30" class="st0" d="M207.1,77.8h-2.2v6.3h-1.3v-6.3h-2.2v-1.1h5.6L207.1,77.8L207.1,77.8z"/>
<path id="path32" class="st0" d="M219.2,84.2h-1.4L217,82h-2.8l-0.8,2.2H212l2.9-7.5h1.1L219.2,84.2z M214.5,81h2.1l-1.1-2.7
	L214.5,81z"/>
<rect id="rect34" x="225" y="76.7" class="st0" width="1.3" height="7.5"/>
<path id="path36" class="st0" d="M238.2,82.2v-5.5h1.3v7.5h-1.6l-3.3-5.5v5.5h-1.3v-7.5h1.6L238.2,82.2z"/>
<path id="path38" class="st0" d="M251.7,82.4l2.5-5.7h1.5v7.5h-1.3v-4.9l-2.1,4.9h-1l-2.2-4.9v4.9h-1.3v-7.5h1.5L251.7,82.4z"/>
<path id="path40" class="st0" d="M267.1,80.8h-2.3V83h3.2v1.1h-4.5v-7.5h4.3v1.1h-3v1.8h2.3V80.8z"/>
<path id="path42" class="st0" d="M279.9,82.2v-5.5h1.3v7.5h-1.6l-3.3-5.5v5.5H275v-7.5h1.6L279.9,82.2z"/>
<path id="path44" class="st0" d="M293.5,77.8h-2.2v6.3h-1.3v-6.3h-2.2v-1.1h5.6L293.5,77.8L293.5,77.8z"/>
<path id="path46" class="st0" d="M60.1,39.2c0-9.8-7.9-17.7-17.7-17.7H21.5c0,0,0,0,0,0v45.1c0,0,0,0.1,0,0.1h9c0,0,0,0,0-0.1v-9.8
	h11.8c0.3,0,0.6,0,0.9,0c3.2-0.2,6.2-1.2,8.8-2.9C57.1,50.6,60.1,45.1,60.1,39.2z M30.6,30.6h11.8c4.7,0,8.6,3.8,8.6,8.6
	c0,2.8-1.4,5.4-3.6,7c-1.4,1-3.1,1.6-4.9,1.6H30.6V30.6z"/>
<path id="path48" class="st0" d="M65.2,66.7h9c0,0,0.1,0,0.1-0.1v-9.8h11.8c0.3,0,0.6,0,0.9,0l6.1,9.9c0,0,0,0,0,0h10.6c0,0,0,0,0,0
	c0,0,0,0,0-0.1l-7.9-12.8c4.9-3.3,7.9-8.8,7.9-14.7c0-9.8-7.9-17.7-17.7-17.7H65.2c0,0-0.1,0-0.1,0L65.2,66.7
	C65.2,66.7,65.2,66.7,65.2,66.7z M91.1,46.2c-1.4,1-3.2,1.6-4.9,1.6H74.3V30.6h11.8c4.7,0,8.6,3.8,8.6,8.6
	C94.7,42,93.3,44.6,91.1,46.2z"/>
<path id="path50" class="st0" d="M109.6,66.7h9c0,0,0.1,0,0.1-0.1V21.5c0,0,0,0-0.1,0h-9c0,0-0.1,0-0.1,0L109.6,66.7
	C109.5,66.7,109.5,66.7,109.6,66.7z"/>
<path id="path52" class="st0" d="M163,66.7C163,66.7,163,66.8,163,66.7l9.1,0.1c0,0,0.1,0,0.1-0.1V21.5c0,0,0,0-0.1,0h-10.6
	c0,0,0,0,0,0l-13.2,21.3l-13.2-21.3c0,0,0,0,0,0h-10.6c0,0-0.1,0-0.1,0v45.1c0,0,0,0.1,0.1,0.1h9c0,0,0.1,0,0.1-0.1V36.3l14.7,23.8
	c0,0,0.1,0,0.1,0L163,36.3V66.7z"/>
<path id="path54" class="st0" d="M293.5,30.6C293.5,30.6,293.5,30.6,293.5,30.6l0-9.1c0,0,0,0,0,0H255c0,0-0.1,0-0.1,0V35H246
	c0-2.5-2.1-4.5-4.6-4.5h-11.5c-2.5,0-4.6,2.1-4.6,4.6s2.1,4.6,4.6,4.6h11.5c7.4,0,13.5,6,13.5,13.5v13.5c0,0,0,0.1,0.1,0.1h38.5
	c0,0,0,0,0-0.1v-9c0,0,0,0,0,0H264v-8.9h20.4c0,0,0,0,0,0v-9c0,0,0,0,0,0H264v-8.9L293.5,30.6L293.5,30.6z M241.4,48.6h-11.5
	c-7.4,0-13.5-6-13.5-13.5c0-7.5,6.1-13.5,13.5-13.5c0,0,0.1,0,0.1,0c0,0,0,0-0.1,0h-13.5l0,0h-9c0,0-0.1,0-0.1,0v25.9
	c0,5.6-4.6,10.2-10.2,10.2c-5.6,0-10.2-4.6-10.2-10.2V21.5c0,0,0,0-0.1,0h-9c0,0-0.1,0-0.1,0v25.9c0,10.7,8.7,19.3,19.3,19.3h19.3
	c0,0,0.1,0,0.1-0.1V53.2h8.9c0,2.5,2.1,4.5,4.6,4.5h11.5c2.5,0,4.6-2,4.6-4.6C246,50.6,243.9,48.6,241.4,48.6z"/>
<path id="path56" class="st1" d="M0,99.9c0,1.6,0.6,3,1.7,4.1s2.5,1.7,4.1,1.7h303.3c1.6,0,3-0.6,4.1-1.7s1.7-2.5,1.7-4.1V5.8
	c0-1.6-0.6-3-1.7-4.1S310.8,0,309.1,0H5.8c-1.6,0-3,0.6-4.1,1.7S0,4.2,0,5.8V99.9z M5.8,101.2c-0.4,0-0.7-0.1-0.9-0.4
	c-0.2-0.2-0.4-0.6-0.4-0.9V5.8c0-0.4,0.1-0.7,0.4-0.9s0.6-0.4,0.9-0.4h303.3c0.4,0,0.7,0.1,0.9,0.4s0.4,0.6,0.4,0.9v94.1
	c0,0.4-0.1,0.7-0.4,0.9s-0.5,0.4-0.9,0.4H5.8z"/>
</svg>
