<?xml version="1.0" encoding="UTF-8" standalone="no"?>
<svg
   id="Layer_1"
   version="1.1"
   viewBox="0 0 1407.1 308.50001"
   width="1407.1"
   height="308.5"
   xmlns="http://www.w3.org/2000/svg"
   xmlns:svg="http://www.w3.org/2000/svg">
  <!-- Generator: Adobe Illustrator 29.2.1, SVG Export Plug-In . SVG Version: 2.1.0 Build 116)  -->
  <defs
     id="defs4">
    <style
       id="style2">
      .st0 {
        fill: #fff;
      }
    </style>
  </defs>
  <polygon
     class="st0"
     points="701.4,261.9 696.6,275.5 706.7,275.5 "
     id="polygon6" />
  <path
     class="st0"
     d="m 480.9,260.6 c -1,-0.8 -2.9,-1.2 -5.8,-1.2 H 474 c -0.4,0 -0.8,0 -1.3,0 v 10.7 h 3.5 c 2,0 3.5,-0.5 4.6,-1.5 1.1,-1 1.6,-2.5 1.6,-4.3 0,-1.8 -0.5,-2.9 -1.5,-3.7 z"
     id="path8" />
  <path
     class="st0"
     d="m 0,233.6 v 74.9 h 1407.1 v -74.9 z m 50.3,57.7 H 27.7 v -37 h 21.4 v 5.6 h -15 v 9 h 11.2 v 5.6 H 34.1 v 11.2 h 16.1 v 5.6 0 z m 114.5,0 h -7.9 l -16.3,-27.2 v 27.2 h -6.5 v -37 h 7.9 l 16.3,27.2 v -27.2 h 6.4 v 37 0 z M 274,259.9 h -10.7 v 31.4 h -6.5 v -31.4 h -10.7 v -5.6 H 274 Z m 107.8,31.4 h -22.5 v -37 h 21.4 v 5.6 h -15 v 9 h 11.2 v 5.6 h -11.2 v 11.2 h 16.1 z m 106.5,0 -12.9,-15.8 h -1.3 c -0.4,0 -0.9,0 -1.4,0 v 15.9 h -6.4 v -37 c 0.6,0 1.3,0 2,-0.1 0.8,0 1.5,0 2.3,0 0.8,0 1.5,0 2.2,0 0.7,0 1.2,0 1.6,0 4.8,0 8.4,0.9 10.9,2.7 2.5,1.8 3.8,4.5 3.8,7.9 0,3.4 -0.5,4.2 -1.6,6 -1.1,1.7 -2.9,3.1 -5.5,3.9 l 13.6,16.8 h -7.5 v 0 z m 117.2,-31.4 h -10.7 v 31.4 h -6.4 v -31.4 h -10.7 v -5.6 h 27.9 v 5.6 z m 107.5,31.4 -4.2,-10.8 h -14 l -3.8,10.8 h -6.7 l 14.4,-37 h 5.5 l 15.8,37 z m 102.8,0 h -6.5 v -37 h 6.5 z m 122.7,0 h -7.9 l -16.3,-27.2 v 27.2 h -6.5 v -37 h 7.9 l 16.3,27.2 v -27.2 h 6.4 v 37 0 z m 115,0 h -6.4 v -24.4 l -10.7,24.4 h -5.2 l -10.9,-24.4 v 24.4 h -6.5 v -37 h 7.3 l 12.6,28.3 12.3,-28.3 h 7.3 v 37 0 z m 102,0 h -22.6 v -37 h 21.4 v 5.6 h -15 v 9 h 11.2 v 5.6 h -11.2 v 11.2 h 16.1 v 5.6 0 z m 114.5,0 h -7.9 l -16.3,-27.2 v 27.2 h -6.5 v -37 h 7.9 l 16.3,27.2 v -27.2 h 6.4 v 37 z m 109.2,-31.4 h -10.7 v 31.4 h -6.5 v -31.4 h -10.7 v -5.6 h 27.9 z"
     id="path10" />
  <path
     class="st0"
     d="M 199.8,91.4 C 199.8,41 158.8,0 108.3,0 H 0.2 C 0.1,0 0,0.1 0,0.2 v 233.5 c 0,0.1 0.1,0.2 0.2,0.2 h 46.7 c 0.1,0 0.2,-0.1 0.2,-0.2 v -50.9 h 61.2 c 1.6,0 3.1,0 4.6,-0.1 16.3,-0.8 32.2,-6 45.7,-15 25.7,-17 41.1,-45.5 41.1,-76.3 v 0 z M 47.2,47.2 h 61.2 c 24.4,0 44.3,19.8 44.3,44.2 0,24.4 -7,27.8 -18.8,36.1 -7.4,5.3 -16.3,8.1 -25.5,8.1 H 47.2 c 0,0 0,-88.5 0,-88.5 z"
     id="path12" />
  <path
     class="st0"
     d="M 226.3,234 H 273 c 0.1,0 0.2,-0.1 0.2,-0.2 v -50.9 h 61.2 c 1.5,0 3,0 4.5,-0.1 l 31.6,51.1 c 0,0 0.1,0.1 0.2,0.1 h 54.9 c 0.1,0 0.2,0 0.2,-0.1 0,-0.1 0,-0.2 0,-0.2 l -40.8,-66 c 25.6,-17 40.9,-45.4 40.9,-76.2 C 425.8,41 384.8,0 334.4,0 H 226.3 c -0.1,0 -0.2,0.1 -0.2,0.2 v 233.5 c 0,0.1 0.1,0.2 0.2,0.2 v 0 z M 359.9,127.6 c -7.5,5.3 -16.3,8.1 -25.5,8.1 H 273.2 V 47.2 h 61.2 c 24.4,0 44.2,19.8 44.2,44.2 0,24.4 -7,27.8 -18.7,36.1 v 0 z"
     id="path14" />
  <path
     class="st0"
     d="m 455.6,234 h 46.7 c 0.1,0 0.2,-0.1 0.2,-0.2 V 0.2 C 502.5,0.1 502.4,0 502.3,0 h -46.7 c -0.1,0 -0.2,0.1 -0.2,0.2 v 233.5 c 0,0.1 0.1,0.2 0.2,0.2 v 0 z"
     id="path16" />
  <path
     class="st0"
     d="m 731.8,233.7 c 0,0.1 0.1,0.2 0.2,0.2 h 46.7 c 0.1,0 0.2,-0.1 0.2,-0.2 V 0.2 C 778.9,0.1 778.8,0 778.7,0 h -54.9 c 0,0 -0.2,0 -0.2,0.1 L 655.6,110.2 587.5,0.1 c 0,0 -0.1,-0.1 -0.2,-0.1 h -54.9 c -0.1,0 -0.2,0.1 -0.2,0.2 v 233.5 c 0,0.1 0,0.2 0.2,0.2 h 46.7 c 0.1,0 0.2,-0.1 0.2,-0.2 V 76.6 l 76,122.9 c 0,0.1 0.3,0.1 0.4,0 l 76,-122.9 v 157.1 0 z"
     id="path18" />
  <path
     class="st0"
     d="m 1406.8,47.2 c 0.1,0 0.2,-0.1 0.2,-0.2 V 0.2 c 0,-0.1 0,-0.2 -0.2,-0.2 h -199.3 c -0.1,0 -0.2,0.1 -0.2,0.2 V 70 h -46.2 C 1161,57.1 1150.4,46.7 1137.5,46.7 h -59.3 c -13,0 -23.6,10.6 -23.6,23.6 0,13 10.6,23.6 23.6,23.6 h 59.3 c 38.5,0 69.8,31.3 69.8,69.8 v 70.1 c 0,0.1 0,0.2 0.2,0.2 h 199.3 c 0.1,0 0.2,-0.1 0.2,-0.2 v -46.7 c 0,-0.1 0,-0.2 -0.2,-0.2 h -152.3 v -46.2 h 105.7 c 0.1,0 0.2,-0.1 0.2,-0.3 V 93.7 c 0,-0.1 0,-0.2 -0.2,-0.2 H 1254.5 V 47.3 h 152.3 v 0 z m -269.3,92.9 h -59.3 c -38.5,0 -69.8,-31.3 -69.8,-69.8 0,-38.5 31.3,-69.8 69.8,-69.8 38.5,0 0.2,-0.1 0.2,-0.2 0,-0.1 0,-0.2 -0.2,-0.2 H 961.5 c -0.1,0 -0.2,0.1 -0.2,0.2 v 133.9 c 0,29.1 -23.7,52.7 -52.7,52.7 -29,0 -52.7,-23.6 -52.7,-52.7 V 0.2 c 0,-0.1 0,-0.2 -0.2,-0.2 H 809 c -0.1,0 -0.2,0.1 -0.2,0.2 v 133.9 c 0,55.1 44.8,99.9 99.9,99.9 h 99.7 c 0.1,0 0.2,-0.1 0.2,-0.2 V 164 h 46.2 c 0.1,12.9 10.7,23.4 23.6,23.4 h 59.3 c 13,0 23.6,-10.6 23.6,-23.6 0,-13 -10.6,-23.6 -23.6,-23.6 v 0 z"
     id="path20" />
</svg>
