<?xml version="1.0" encoding="UTF-8"?>
<svg id="Layer_1" xmlns="http://www.w3.org/2000/svg" xmlns:svg="http://www.w3.org/2000/svg" version="1.1" viewBox="0 0 1460 1460">
  <!-- Generator: Adobe Illustrator 29.2.1, SVG Export Plug-In . SVG Version: 2.1.0 Build 116)  -->
  <defs>
    <style>
      .st0 {
        fill: #fff;
        fill-rule: evenodd;
      }

      .st1 {
        fill: #231f20;
      }
    </style>
  </defs>
  <circle class="st1" cx="730" cy="730" r="725"/>
  <path id="polygon24" class="st0" d="M171.71,799.6h142.99l-83.09-139.21-176.6,139.21h50.08l117.99-92.99,36.94,61.94h-48.46l-39.85,31.05ZM484.83,695.65v-16.49c-10.93-6.28-29.05-10.57-45.18-10.57-38.72,0-64.53,24.03-64.53,60.07s25.81,60.07,64.53,60.07c16.13,0,34.24-4.3,45.18-10.57l-1.42-2.32,1.26,2.32v-16.49h-2.34c-.72,1.26-1.6,2.68-2.32,3.94-6.64,11.29-22.41,18.11-40.7,18.11-25.47,0-42.48-22.05-42.48-55.03s17.03-55.03,42.48-55.03c.88,0,12.91.36,12.91.9,11.47,1.6,22.59,8.41,27.61,17.21.72,1.26,1.62,2.68,2.34,3.94h2.68l-.02-.05ZM502.41,672.16c4.66,0,7.15,3.76,7.15,11.65v89.64c0,7.9-2.52,11.65-7.15,11.65v2.68h34.24v-2.68c-4.66,0-7.15-3.76-7.15-11.65v-41.76h12.91c4.84,6.82,14.35,20.09,26.53,37.12,13.09,18.27,14.53,18.99,36.4,18.99h7v-3.94c-7.87,0-8.26-.18-16.33-11.29-15.23-21.51-26.71-36.92-31.36-43.04,17.39-4.3,28.15-15.05,28.15-29.59,0-18.27-16.85-30.46-42.14-30.46h-48.42l.18,2.68ZM546.35,726.68h-17.03v-52.15h21.35c12.73,0,21.17,10.21,21.17,25.45s-10.24,26.73-25.47,26.73h0l-.02-.02ZM687.8,735.46v-20.45h-2.16l-.7,1.08c-1.98,3.58-9.49,6.1-18.65,6.1h-19.73v-47.68h25.63c10.75,0,20.43,4.48,24.55,11.11l1.26,1.96h1.98v-18.09h-80.5v2.68c4.68,0,7.18,3.76,7.18,11.65v89.64c0,7.9-2.52,11.65-7.18,11.65v2.68h80.68l.54-2.5c.72-4.66,1.8-10.93,2.7-15.59h-1.98l-1.6,1.96c-5.4,6.64-15.79,11.11-26.55,11.11h-26.71v-55.57h19.73c9.13,0,16.49,2.88,18.65,7l.7,1.26h2.16ZM790,694.75v-17.93c-8.8-4.99-20.81-8.41-30.31-8.41-22.95,0-38.38,14.35-38.38,35.86,0,13.45,11.83,26.19,29.77,31.9,19.35,6.1,32.26,16.85,32.26,26.71,0,12.37-9.85,20.63-24.55,20.63-2.52,0-5.2-.18-7.87-.54-10.39-1.8-20.25-8.26-25.11-16.67-.7-1.26-1.6-2.7-2.32-3.96h-2.32v17.93c8.77,5.02,23.83,8.44,37.84,8.44,23.31,0,38.72-13.63,38.72-33.91,0-14.33-12.37-27.94-31.03-33.88-18.81-5.92-31.36-15.77-31.36-24.37,0-13.81,9.52-23.13,23.67-23.13,0,0,7.54.72,7.33,1.08,6.82,1.62,13.97,7.36,17.93,14.35,1.08,1.8,2.52,4.3,3.58,6.1l2.16-.18-.02-.02ZM923.58,695.74v-16.49c-10.96-6.28-29.05-10.57-45.18-10.57-38.74,0-64.55,24.03-64.55,60.07s25.81,60.07,64.55,60.07c16.13,0,34.24-4.3,45.18-10.57l-1.44-2.32,1.26,2.32v-16.49h-2.32c-.72,1.26-1.62,2.68-2.34,3.94-6.64,11.29-22.41,18.11-40.7,18.11-25.47,0-42.48-22.05-42.48-55.03s17.03-55.03,42.48-55.03c.9,0,12.91.36,12.91.9,11.47,1.6,22.59,8.41,27.63,17.21.72,1.26,1.6,2.68,2.32,3.94h2.7l-.02-.05ZM1009.82,735.55v-20.45h-2.14l-.72,1.08c-1.98,3.58-9.52,6.1-18.65,6.1h-19.71v-47.68h25.63c10.75,0,20.45,4.48,24.57,11.11l1.26,1.96h1.96v-18.09h-80.5v2.68c4.66,0,7.15,3.76,7.15,11.65v89.64c0,7.9-2.52,11.65-7.15,11.65v2.68h80.68l.54-2.5c.72-4.66,1.8-10.93,2.7-15.59h-1.98l-1.6,1.96c-5.4,6.64-15.79,11.11-26.53,11.11h-26.71v-55.57h19.71c9.13,0,16.49,2.88,18.65,7l.72,1.26h2.14-.02ZM1042.8,672.16c4.66,0,7.15,3.76,7.15,11.65v89.64c0,7.9-2.52,11.65-7.15,11.65v2.68h20.25v-2.68c-4.66,0-7.15-3.76-7.15-11.65v-86.42c24.91,34.78,49.84,69.57,74.77,104.35h6.82v-107.57c0-7.87,2.52-11.65,7.15-11.65v-2.68h-20.25v2.68c4.66,0,7.15,3.76,7.15,11.65v75.13l-63.99-89.46h-24.93l.18,2.68ZM1157.91,672.16c4.66,0,7.15,3.76,7.15,11.65v89.64c0,7.9-2.5,11.65-7.15,11.65v2.68h52.69c34.96,0,58.27-23.65,58.27-59.15s-25.81-59.17-64.71-59.17h-46.26v2.7ZM1184.98,782.8v-108.29h19.19c26.89,0,44.82,21.69,44.82,54.13s-15.41,54.13-38.38,54.13h-25.63v.02ZM1308.18,728.64c0-29.77,12.73-55.03,37.46-55.03s37.3,25.27,37.3,55.03-12.73,55.03-37.3,55.03-37.46-25.29-37.46-55.03ZM1286.11,728.64c0,32.44,20.25,60.07,59.53,60.07s59.35-27.63,59.35-60.07-20.25-60.07-59.35-60.07-59.53,27.61-59.53,60.07Z"/>
</svg>