<?xml version="1.0" encoding="UTF-8"?><svg id="Layer_1" xmlns="http://www.w3.org/2000/svg" viewBox="0 0 1450 1450"><defs><style>.cls-1{fill:#fff;fill-rule:evenodd;}.cls-2{fill:#231f20;}</style></defs><circle class="cls-2" cx="725" cy="725" r="725"/><path id="polygon24" class="cls-1" d="M193.81,717.34v-21.62c-14.33-8.23-38.08-13.86-59.22-13.86-50.76,0-84.59,31.5-84.59,78.74s33.83,78.74,84.59,78.74c21.14,0,44.88-5.64,59.22-13.86l-1.86-3.04,1.65,3.04v-21.62h-3.07c-.94,1.65-2.1,3.51-3.04,5.16-8.7,14.8-29.38,23.74-53.35,23.74-33.39,0-55.68-28.9-55.68-72.14s22.32-72.14,55.68-72.14c1.15,0,16.92.47,16.92,1.18,15.04,2.1,29.61,11.02,36.19,22.56.94,1.65,2.12,3.51,3.07,5.16h3.51l-.03-.07h0ZM216.86,686.55c6.11,0,9.37,4.93,9.37,15.27v117.5c0,10.36-3.3,15.27-9.37,15.27v3.51h44.88v-3.51c-6.11,0-9.37-4.93-9.37-15.27v-54.74h16.92c6.34,8.94,18.81,26.33,34.78,48.66,17.16,23.95,19.05,24.89,47.71,24.89h9.18v-5.16c-10.32,0-10.83-.24-21.41-14.8-19.96-28.2-35.01-48.4-41.11-56.42,22.8-5.64,36.9-19.73,36.9-38.79,0-23.95-22.09-39.93-55.24-39.93h-63.47l.24,3.51h-.01ZM274.46,758.02h-22.32v-68.36h27.99c16.69,0,27.75,13.38,27.75,33.36s-13.42,35.04-33.39,35.04h0l-.03-.03h0ZM459.88,769.53v-26.81h-2.83l-.92,1.42c-2.6,4.69-12.44,8-24.45,8h-25.86v-62.5h33.6c14.09,0,26.78,5.87,32.18,14.56l1.65,2.57h2.6v-23.71h-105.52v3.51c6.13,0,9.41,4.93,9.41,15.27v117.5c0,10.36-3.3,15.27-9.41,15.27v3.51h105.76l.71-3.28c.94-6.11,2.36-14.33,3.54-20.44h-2.6l-2.1,2.57c-7.08,8.7-20.7,14.56-34.8,14.56h-35.01v-72.84h25.86c11.97,0,21.62,3.78,24.45,9.18l.92,1.65h2.83ZM593.84,716.16v-23.5c-11.54-6.54-27.28-11.02-39.73-11.02-30.08,0-50.31,18.81-50.31,47.01,0,17.63,15.51,34.33,39.02,41.82,25.36,8,42.29,22.09,42.29,35.01,0,16.22-12.91,27.04-32.18,27.04-3.3,0-6.82-.24-10.32-.71-13.62-2.36-26.54-10.83-32.92-21.85-.92-1.65-2.1-3.54-3.04-5.19h-3.04v23.5c11.5,6.58,31.24,11.06,49.6,11.06,30.56,0,50.76-17.87,50.76-44.45,0-18.78-16.22-36.63-40.68-44.41-24.66-7.76-41.11-20.67-41.11-31.95,0-18.1,12.48-30.32,31.03-30.32,0,0,9.88.94,9.61,1.42,8.94,2.12,18.31,9.65,23.5,18.81,1.42,2.36,3.3,5.64,4.69,8l2.83-.24-.03-.03h.01ZM768.95,717.46v-21.62c-14.37-8.23-38.08-13.86-59.22-13.86-50.78,0-84.62,31.5-84.62,78.74s33.83,78.74,84.62,78.74c21.14,0,44.88-5.64,59.22-13.86l-1.89-3.04,1.65,3.04v-21.62h-3.04c-.94,1.65-2.12,3.51-3.07,5.16-8.7,14.8-29.38,23.74-53.35,23.74-33.39,0-55.68-28.9-55.68-72.14s22.32-72.14,55.68-72.14c1.18,0,16.92.47,16.92,1.18,15.04,2.1,29.61,11.02,36.22,22.56.94,1.65,2.1,3.51,3.04,5.16h3.54l-.03-.07h0ZM881.99,769.65v-26.81h-2.81l-.94,1.42c-2.6,4.69-12.48,8-24.45,8h-25.84v-62.5h33.6c14.09,0,26.81,5.87,32.21,14.56l1.65,2.57h2.57v-23.71h-105.52v3.51c6.11,0,9.37,4.93,9.37,15.27v117.5c0,10.36-3.3,15.27-9.37,15.27v3.51h105.76l.71-3.28c.94-6.11,2.36-14.33,3.54-20.44h-2.6l-2.1,2.57c-7.08,8.7-20.7,14.56-34.78,14.56h-35.01v-72.84h25.84c11.97,0,21.62,3.78,24.45,9.18l.94,1.65h2.81-.03,0ZM925.23,686.55c6.11,0,9.37,4.93,9.37,15.27v117.5c0,10.36-3.3,15.27-9.37,15.27v3.51h26.54v-3.51c-6.11,0-9.37-4.93-9.37-15.27v-113.28c32.65,45.59,65.33,91.2,98.01,136.79h8.94v-141.01c0-10.32,3.3-15.27,9.37-15.27v-3.51h-26.54v3.51c6.11,0,9.37,4.93,9.37,15.27v98.48l-83.88-117.27h-32.68l.24,3.51ZM1076.12,686.55c6.11,0,9.37,4.93,9.37,15.27v117.5c0,10.36-3.28,15.27-9.37,15.27v3.51h69.07c45.83,0,76.38-31,76.38-77.54s-33.83-77.56-84.82-77.56h-60.64v3.54h.01ZM1111.6,831.58v-141.95h25.16c35.25,0,58.75,28.43,58.75,70.96s-20.2,70.96-50.31,70.96h-33.6v.03h0ZM1273.1,760.59c0-39.02,16.69-72.14,49.1-72.14s48.89,33.13,48.89,72.14-16.69,72.14-48.89,72.14-49.1-33.15-49.1-72.14ZM1244.17,760.59c0,42.52,26.54,78.74,78.03,78.74s77.8-36.22,77.8-78.74-26.54-78.74-77.8-78.74-78.03,36.19-78.03,78.74Z"/><polygon class="cls-1" points="687.62 599.14 936.52 599.14 791.88 356.82 484.48 599.14 571.66 599.14 777.04 437.28 841.34 545.09 756.98 545.09 687.62 599.14 687.62 599.14"/></svg>