<?xml version="1.0" encoding="UTF-8"?>
<svg id="Layer_1" xmlns="http://www.w3.org/2000/svg" xmlns:svg="http://www.w3.org/2000/svg" version="1.1" viewBox="0 0 1460 1460">
  <!-- Generator: Adobe Illustrator 29.2.1, SVG Export Plug-In . SVG Version: 2.1.0 Build 116)  -->
  <defs>
    <style>
      .st0 {
        fill: #231f20;
      }

      .st1 {
        fill: #fff;
      }
    </style>
  </defs>
  <circle class="st0" cx="730" cy="730" r="725"/>
  <path id="path4" class="st1" d="M199.32,403.99c-10.68,0-19.32,8.66-19.32,19.32v433.43c0,10.68,8.66,19.32,19.32,19.32s19.3-8.66,19.32-19.32v-433.43c0-10.68-8.66-19.32-19.32-19.32ZM275.12,415.62c-10.68,0-19.32,8.66-19.32,19.32v421.79c0,10.68,8.66,19.32,19.32,19.32s19.32-8.66,19.32-19.32v-421.79c0-10.68-8.66-19.32-19.32-19.32ZM654.2,416.86c-10.68,0-19.32,8.66-19.32,19.32v420.56c0,10.68,8.66,19.32,19.32,19.32s19.3-8.66,19.32-19.32v-420.56c0-10.68-8.65-19.32-19.32-19.32ZM729.99,419.72c-10.68,0-19.32,8.66-19.32,19.32v77.25c0,10.68,8.66,19.32,19.32,19.32s19.32-8.64,19.32-19.32v-77.25c0-10.68-8.65-19.32-19.32-19.32ZM805.81,419.72c-10.68,0-19.32,8.66-19.32,19.32v118.9c0,10.68,8.66,19.32,19.32,19.32s19.32-8.64,19.32-19.32v-118.9c0-10.68-8.66-19.32-19.32-19.32ZM957.44,459.79c-10.68,0-19.32,8.66-19.32,19.32v377.63c0,10.68,8.66,19.32,19.32,19.32s19.3-8.66,19.32-19.3v-377.65c0-10.68-8.66-19.32-19.32-19.32ZM1260.68,459.79c-10.68,0-19.32,8.66-19.32,19.32v377.63c0,10.68,8.66,19.32,19.32,19.32s19.32-8.66,19.32-19.3v-377.65c0-10.68-8.65-19.32-19.32-19.32ZM578.38,477.66c-10.68,0-19.32,8.66-19.32,19.32v359.76c0,10.68,8.65,19.32,19.32,19.32s19.3-8.66,19.32-19.32v-359.76c0-10.68-8.66-19.32-19.32-19.32ZM1033.25,535.58c-10.68,0-19.32,8.66-19.32,19.32v301.83c0,10.68,8.65,19.32,19.32,19.32s19.3-8.66,19.32-19.32v-301.83c0-10.68-8.66-19.32-19.32-19.32ZM1184.86,535.58c-10.68,0-19.32,8.66-19.32,19.32v301.83c0,10.68,8.65,19.32,19.32,19.32s19.32-8.66,19.32-19.32v-301.83c0-10.68-8.66-19.32-19.32-19.32ZM729.99,647.17c-10.68,0-19.32,8.65-19.32,19.32v17.67c0,10.68,8.66,19.32,19.32,19.32s19.32-8.66,19.32-19.32v-17.67c0-10.68-8.65-19.32-19.32-19.32ZM350.93,656.69c-10.68,0-19.32,8.66-19.32,19.32v180.72c0,10.68,8.66,19.32,19.32,19.32s19.32-8.66,19.32-19.32v-180.72c0-10.68-8.66-19.32-19.32-19.32ZM426.75,656.69c-10.68,0-19.32,8.66-19.32,19.32v180.72c0,10.68,8.66,19.32,19.32,19.32s19.32-8.66,19.32-19.32v-180.72c0-10.68-8.66-19.32-19.32-19.32ZM805.81,656.69c-10.68,0-19.32,8.66-19.32,19.32v180.72c0,10.68,8.66,19.32,19.32,19.32s19.32-8.66,19.32-19.32v-180.72c0-10.68-8.66-19.32-19.32-19.32ZM1109.07,657.17c-10.68,0-19.32,8.66-19.32,19.32v180.24c0,10.68,8.65,19.32,19.32,19.32s19.3-8.66,19.32-19.32v-180.24c0-10.68-8.66-19.32-19.32-19.32ZM881.62,725.84c-10.68,0-19.32,8.66-19.32,19.32v111.58c0,10.68,8.66,19.32,19.32,19.32s19.32-8.66,19.32-19.32v-111.58c0-10.68-8.66-19.32-19.32-19.32ZM729.99,733.68c-10.68,0-19.32,8.66-19.32,19.32v103.74c0,10.68,8.66,19.32,19.32,19.32s19.32-8.66,19.32-19.32v-103.74c0-10.68-8.65-19.32-19.32-19.32ZM502.56,734.42c-10.68,0-19.32,8.66-19.32,19.32v103c0,10.68,8.65,19.32,19.32,19.32s19.3-8.66,19.32-19.32v-103c0-10.68-8.66-19.32-19.32-19.32ZM323.89,958.06c-11.74,0-20.94,3.44-27.58,10.32-6.61,6.85-9.91,16.41-9.91,28.69s3.3,21.81,9.91,28.69c6.64,6.85,15.84,10.27,27.58,10.27,5.37,0,10.42-.71,15.15-2.12,4.73-1.44,9.06-3.56,12.98-6.34v-32.26h-26.68v8.35h16.61v20.19c-2.25,1.31-4.78,2.28-7.6,2.92-2.82.6-6.02.9-9.61.9-9.19,0-16.11-2.57-20.74-7.7-4.6-5.13-6.9-12.77-6.9-22.9s2.3-17.82,6.9-22.95c4.63-5.13,11.54-7.7,20.74-7.7,4.66,0,9.11.81,13.34,2.42,4.23,1.61,8.22,4.01,11.98,7.19v-10.82c-3.72-2.35-7.8-4.13-12.23-5.34-4.4-1.21-9.04-1.81-13.94-1.81ZM183.65,959.42v75.15h46.76v-8.56h-36.59v-66.59h-10.17ZM420.24,959.42v75.15h9.87v-65.99l19.38,51.54h10.22l19.38-51.54v65.99h9.92v-75.15h-15.15l-19.28,51.14-19.17-51.14h-15.15ZM660.62,959.42l-28.69,75.15h10.72l6.85-19.28h33.87l6.85,19.28h10.57l-28.64-75.15h-11.53ZM666.36,969.43l13.84,37.4h-27.63l13.79-37.4ZM780.03,976.83c-6.91,0-12.48,2.64-16.71,7.9-4.23,5.27-6.34,12.27-6.34,20.99s2.11,15.67,6.34,20.94c4.23,5.27,9.8,7.9,16.71,7.9,4.16,0,7.74-.82,10.72-2.47s5.43-4.13,7.35-7.45v4.58c0,6.41-1.51,11.19-4.53,14.35-3.02,3.19-7.57,4.78-13.64,4.78-2.75,0-5.45-.35-8.1-1.05-2.65-.7-5.34-1.8-8.06-3.27v9.01c2.72,1.01,5.52,1.74,8.41,2.21,2.89.5,5.96.76,9.21.76,8.79,0,15.32-2.35,19.58-7.05,4.26-4.66,6.39-11.8,6.39-21.39v-49.38h-9.26v8.56c-1.91-3.32-4.36-5.81-7.35-7.45-2.99-1.64-6.56-2.47-10.72-2.47ZM899.69,976.83c-8.46,0-15.18,2.72-20.18,8.16-4.97,5.4-7.45,12.72-7.45,21.94s2.62,16.01,7.85,21.24c5.27,5.23,12.4,7.85,21.39,7.85,3.59,0,7.13-.37,10.62-1.11,3.49-.74,6.89-1.81,10.22-3.22v-8.76c-3.29,1.74-6.61,3.05-9.96,3.92-3.32.87-6.76,1.31-10.32,1.31-6.14,0-10.94-1.66-14.4-4.98-3.42-3.36-5.33-8.22-5.74-14.6h42.58v-4.53c0-8.39-2.21-15.01-6.64-19.88-4.4-4.9-10.38-7.35-17.97-7.35ZM1016.33,976.83c-3.93,0-7.4.84-10.42,2.52-2.99,1.68-5.58,4.21-7.8,7.6v-8.76h-9.31v56.37h9.31v-31.86c0-5.5,1.44-9.85,4.33-13.04,2.89-3.19,6.83-4.78,11.83-4.78,4.16,0,7.28,1.32,9.36,3.98,2.08,2.65,3.12,6.64,3.12,11.98v33.72h9.26v-34.03c0-7.79-1.66-13.68-4.98-17.67-3.32-4.03-8.22-6.04-14.7-6.04ZM1128.44,976.83c-8.79,0-15.72,2.64-20.79,7.9-5.03,5.27-7.55,12.5-7.55,21.69s2.5,16.26,7.5,21.59c5,5.34,11.74,8.01,20.23,8.01,3.12,0,6.06-.3,8.81-.91,2.79-.6,5.47-1.51,8.06-2.72v-8.56c-2.62,1.44-5.25,2.53-7.9,3.27-2.62.7-5.27,1.06-7.95,1.06-6.01,0-10.67-1.9-13.99-5.69-3.32-3.83-4.98-9.18-4.98-16.06s1.66-12.21,4.98-16.01c3.32-3.83,7.99-5.74,13.99-5.74,2.68,0,5.33.37,7.95,1.11,2.65.7,5.29,1.78,7.9,3.22v-8.66c-2.55-1.17-5.19-2.05-7.9-2.62-2.72-.6-5.5-.91-8.35-.91ZM1203.8,978.19l22.8,55.47-1.66,4.23c-1.71,4.5-3.27,7.35-4.68,8.56-1.41,1.21-3.39,1.81-5.94,1.81h-5.43v7.75h7.4c4.16,0,7.48-1.02,9.97-3.07,2.48-2.05,5.03-6.42,7.65-13.14l24.76-61.61h-9.82l-17.62,44.09-17.62-44.09h-9.82ZM782.29,984.59c5,0,8.88,1.84,11.63,5.53,2.79,3.69,4.18,8.9,4.18,15.61s-1.39,11.86-4.18,15.55c-2.75,3.69-6.63,5.53-11.63,5.53s-8.84-1.84-11.63-5.53c-2.75-3.69-4.13-8.87-4.13-15.55s1.38-11.92,4.13-15.61c2.79-3.69,6.66-5.53,11.63-5.53ZM899.79,984.69c4.56,0,8.22,1.51,10.97,4.53,2.79,3.02,4.21,7.06,4.28,12.13l-33.02.05c.47-5.3,2.25-9.41,5.33-12.33,3.12-2.92,7.27-4.38,12.43-4.38Z"/>
</svg>