<?xml version="1.0" encoding="UTF-8"?>
<svg xmlns="http://www.w3.org/2000/svg" xmlns:svg="http://www.w3.org/2000/svg" xmlns:sodipodi="http://sodipodi.sourceforge.net/DTD/sodipodi-0.dtd" xmlns:inkscape="http://www.inkscape.org/namespaces/inkscape" version="1.1" viewBox="0 0 1460 1460">
  <!-- Generator: Adobe Illustrator 29.2.1, SVG Export Plug-In . SVG Version: 2.1.0 Build 116)  -->
  <defs>
    <style>
      .st0 {
        fill: #231f20;
      }

      .st1 {
        fill: #fff;
      }
    </style>
  </defs>
  <g id="Layer_1" inkscape:version="1.2.1 (9c6d41e4, 2022-07-14)" sodipodi:docname="Logo Nomads! _ Green.svg">
    <g>
      <circle class="st0" cx="730" cy="730" r="725"/>
      <g>
        <path id="path2" class="st1" d="M1010.56,961.32c-2,.24-6.71.24-8.75,0-38.67-4.71-57.75-78.37-71.21-108.75-6.01-13.55-12.88-27.46-20.2-40.37-16.04-28.37-28.01-46.57-64.4-43.99-8.51.61-10.15,3.28-10.27,11.79-.24,15.67,6.62,33.57,13,47.42,10.72,23.3,14.22,47.94-17.13,54.19-27.34,5.47-29.83-20.29-30.99-40.4-2.37-40.46-2.86-79.07-8.17-119.66-3.07-23.54-14.19-64.4-4.95-85.85,8.48-19.68,41.07-21.08,58.54-14.82,37.79,13.52,46.48,60.63,61.42,93.32,16.83,36.76,39.76,64.98,67.38,94.08,30.8,32.47,82.32,68.68,67.8,120.21-4.1,14.49-16.1,30.77-32.11,32.81l.03.03ZM833.39,669.51c-4.37.79-7.08,4.92-7.72,9.08-2.58,16.13,18.29,37.82,32.69,21.93,12.3-13.58-11.45-33.48-24.97-31.02Z"/>
        <path id="path4" class="st1" d="M1404.19,817.36v5.38c-1.52,44.23-70.6,48.24-77.89,4.19-2.55-15.46,3.37-35.85,19.5-41.41,29.31-10.09,57.2-3.04,58.39,31.81v.03Z"/>
        <path id="path6" class="st1" d="M330.09,530.96c20.96-2.37,41.28,8.35,39.16,31.74-1.09,11.97-13.91,29.01-19.41,40.46-17.98,37.43-28.86,86.94-30.41,128.38-.67,18.01,1.34,37.43,0,55.2-1.79,24.33-20.44,39.43-42.62,23.79-27.52-19.44-44.23-92.99-56.96-125.37-6.17-15.67-15.19-33.66-26.37-8.17-8.51,19.41-11.54,45.45-17.71,66.38-9.11,30.89-31.29,90.43-55.86,110.97-30.32,25.34-76.16,4.25-63.58-36,5.71-18.32,20.78-39.86,31.5-55.96,27.98-42.01,78.34-104.74,81.59-155.9,1.03-16.31-6.62-37.43,13.94-44.59,11.54-4.01,21.84-.21,30.74,7.23,36.91,30.86,23.3,96.78,47.6,135.39,6.65,10.6,9.33,6.2,11.63-3.55,6.32-26.67,4.8-63.52,7.75-91.83,3.16-30.23,11.33-73.94,48.97-78.19l.03.03Z"/>
        <path id="path8" class="st1" d="M719.05,595.57c11.57-1,30.04,6.5,33.75,18.35,2.4,7.66,1.64,22.48,1.4,30.92-1.7,63.4-4.62,125.83,19.84,185.97,4.62,11.39,10.84,21.42,13.46,33.66,12.33,58.36-51.98,73.33-76.95,20.41-15.86-33.57-9.11-91.53-5.47-128.38,2.43-24.64,7.5-50.91,8.75-75.37.18-3.43.76-17.16-2-18.83-2.49-1.52-4.65,1.03-6.05,2.73-5.89,7.02-11.79,18.44-17.38,26.37-14.19,20.17-46.93,63.85-72.54,66.71-29.98,3.37-37.15-32.47-46.39-53.04-2.92-6.53-12.27-23.45-20.51-13.15s.21,39.25,1.34,52.46c1.7,19.72-1.34,57.17-29.86,54.07-34.51-3.74-16.59-64.37-13.97-85.79,1.94-15.98,2.61-31.59,2.76-47.69.09-11.94-1.82-25.06-.64-36.97,1.82-18.26,21.72-25.27,37.67-21.54,31.38,7.35,35,47.3,53.16,68.59,16.37,19.23,31.08,8.84,44.75-6.35,18.96-21.11,44.29-70.51,74.88-73.15h0Z"/>
        <path id="path10" class="st1" d="M1210.93,572.7c18.77-1.12,43.23-.27,55.59,16.01,11.12,14.64,4.8,40.52-14.82,42.92s-64.89-15.86-74.85,9.27c-2.61,6.62-2.43,12.61,3.25,17.41s28.43,9.39,37.36,12.42c45.08,15.4,81.26,39.67,77.04,93.17-4.5,56.84-86.36,85.88-134.94,83.11-26.12-1.49-84.15-17.68-74.52-53.71,3.43-12.82,14.31-23.91,27.1-27.4,26.16-7.14,41.19,8.87,64.46,14.95,17.71,4.65,49.15,7.62,54.47-15.8,6.99-30.83-30.83-40.28-51.61-48.94-35.72-14.92-88.25-47.48-64.07-93.59,17.16-32.72,60.76-47.72,95.54-49.82h0Z"/>
        <path id="path12" class="st1" d="M939.23,576.52c.18-1.09-.91-.64-1.67-.67-18.17-.94-38.06,3.01-55.9,1.37-15.49-1.43-26.06-18.77-21.02-33.17,10.75-30.62,57.44-22.81,82.08-19.11,59.63,8.93,140.89,38.28,148.58,107.78,4.77,43.11-27.55,129.01-66.41,151.56-52.46,30.47-78.16-46.78-88.16-83.81-7.5-27.8-12.27-57.78-13-86.58-.36-14.76.21-30.38,15.49-37.36ZM951.35,577.19c6.29,1.55,13.28,7.38,16.07,13.21,4.31,9.02,1.12,17.62.76,26.82-.91,24.42-1.25,106.5,43.38,68.93,21.02-17.71,42.23-53.83,21.2-79.01-15.31-18.35-54.68-28.49-77.8-30.53-.82-.06-3.58-.73-3.61.58Z"/>
        <path id="path14" class="st1" d="M1368.99,763.32c-15.98,16.01-36.36-4.31-43.41-19.05-19.11-39.89-30.65-105.9-37.58-150.13-4.04-25.97-5.1-58.72,17.65-76.8,16.19-12.85,46.66-11.7,57.87,7.38,13.91,23.69,5.92,77.71,5.04,105.96-.7,22.18-1,43.74,1.37,65.92,1.91,18.01,12.73,53.04-.91,66.71h-.03Z"/>
        <path id="path16" class="st1" d="M408.83,610.36c40.13-2,60.85,21.81,73.3,56.81,14.76,41.37.82,90.8-39.07,111.94-45.45,24.09-84.57-9.17-99.88-51.07-16.13-44.08,14.37-115.16,65.65-117.71v.03ZM403.46,632.54c-12.79,1.49-32.38,18.14-34.11,31.14-3.55,26.73,28.56,38.18,50.09,37.3,38.34-1.58,19.78-72.63-15.98-68.44Z"/>
        <path id="path18" class="st1" d="M537.51,841.57l6.59.15,11.57,20.05,12.21-20.08,6.62-.12v32.96c-2.4-.3-5.62.91-7.41-1v-17.83l-9.08,14.79c-1.18,1.12-2.79,1-4.04,0-2.7-2.25-5.62-11.54-9.08-14.13v18.17h-7.41v-32.96h.03Z"/>
        <path id="path20" class="st1" d="M276.42,841.57l6.62.12,11.88,20.05,11.91-20.02,6.59-.15v32.96h-7.41v-18.83l-9.08,14.79c-1.4,1.25-3.13.91-4.44-.3-2.79-2.61-5.22-11-8.72-13.82v17.16c-1.76,1.91-4.98.7-7.41,1v-32.96h.06Z"/>
        <polygon id="polygon22" class="st1" points="466.85 861.1 466.85 841.57 474.27 841.57 474.27 874.56 467.67 874.41 451.36 855.03 451.36 874.56 443.98 874.56 443.98 841.57 451.09 842.21 466.85 861.1"/>
        <path id="path24" class="st1" d="M620.26,874.56v-32.96h18.5c.76,0,5.89,1.97,6.87,2.55,10.24,5.98,10.06,22.39-.55,27.98-1.28.67-5.86,2.43-6.99,2.43h-17.83ZM627.67,847.65v19.84c1.25,1.49,3.89,1.12,5.74,1.03,6.5-.36,11.48-2.67,11.79-9.75.46-10.88-8.96-11.57-17.53-11.12Z"/>
        <path id="path26" class="st1" d="M359.2,874.56v-32.96h18.5c.61,0,5.04,1.67,5.92,2.13,12.33,6.32,10.78,25.03-2.43,29.62-.67.24-3.86,1.22-4.19,1.22h-17.83.03ZM366.58,868.49c7.66.24,17.13.15,17.53-9.72.46-10.91-8.93-11.57-17.53-11.12v20.87-.03Z"/>
        <path id="path28" class="st1" d="M235.89,841.11c25.79-2.86,27.49,33.32,3.13,34.14-22.75.76-25.3-31.68-3.13-34.14ZM235.86,847.8c-10.78,1.97-9.93,19.59,1.18,20.72,15.95,1.64,15.58-23.79-1.18-20.72Z"/>
        <path id="path30" class="st1" d="M496.32,841.11c25.64-2.83,27.52,33.32,3.13,34.14-23,.76-25.24-31.68-3.13-34.14ZM496.29,847.8c-10.39,1.91-10.3,18.41,0,20.54,16.5,3.43,17.53-23.76,0-20.54Z"/>
        <path id="path32" class="st1" d="M214.51,870.85c-12.58,9.05-31.96,3.19-30.99-14.16.88-15.67,21.6-20.9,31.65-10.06l-4.47,4.31c-2.7-1.31-4.1-2.98-7.29-3.28-15.98-1.58-16.1,20.29-2.04,20.9,8.9.39,6.05-4.1,6.41-10.81h6.74v13.12l-.03-.03Z"/>
        <path id="path34" class="st1" d="M340.27,841.66l14.22,32.87-7.96-.12-2.73-6.87-14.4-.27c-2.16.67-2.46,5.26-3.8,6.96l-7.41.3,13.79-32.29,8.35-.58h-.06ZM341.03,861.77c-.03-1.28-4.59-12.7-5.38-12.12l-4.71,12.12h10.09Z"/>
        <path id="path36" class="st1" d="M601.34,841.66l14.22,32.87-7.99-.09-3.22-7.23c-3.98.21-8.87-.58-12.73-.12-3.65.43-2.98,4.74-4.98,7.11l-7.41.33,14.25-32.84h7.87v-.03ZM602.1,861.77c.18-1.46-4.56-12.76-5.38-12.12l-4.71,12.12h10.09Z"/>
        <polygon id="polygon38" class="st1" points="423.78 858.4 423.17 864.17 410.96 864.17 410.32 858.4 423.78 858.4"/>
      </g>
    </g>
  </g>
</svg>