<?xml version="1.0" encoding="UTF-8"?>
<svg id="Layer_1" xmlns="http://www.w3.org/2000/svg" xmlns:svg="http://www.w3.org/2000/svg" version="1.1" viewBox="0 0 1460 1460">
  <!-- Generator: Adobe Illustrator 29.2.1, SVG Export Plug-In . SVG Version: 2.1.0 Build 116)  -->
  <defs>
    <style>
      .st0 {
        fill: #231f20;
      }

      .st1 {
        fill: #fff;
      }
    </style>
  </defs>
  <circle class="st0" cx="730" cy="730" r="725"/>
  <path id="path72" class="st1" d="M104.12,511.77c-6.66,0-12.34,2.36-17.06,7.06-4.72,4.72-7.06,10.4-7.06,17.06v388.21c0,6.66,2.36,12.34,7.06,17.06,4.72,4.72,10.4,7.06,17.06,7.06h1251.76c6.66,0,12.34-2.36,17.06-7.06,4.72-4.72,7.06-10.4,7.06-17.06v-388.21c0-6.66-2.36-12.34-7.06-17.06-4.72-4.72-10.4-7.06-17.06-7.06H104.12ZM104.12,530.59h1251.76c1.46,0,2.71.53,3.73,1.55,1.03,1.03,1.55,2.27,1.55,3.73v388.21c0,1.46-.53,2.71-1.55,3.76-1.03,1.03-2.27,1.55-3.73,1.55H104.12c-1.46,0-2.71-.53-3.73-1.55-1.03-1.05-1.55-2.29-1.55-3.76v-388.21c0-1.46.53-2.71,1.55-3.73s2.27-1.55,3.73-1.55ZM168.71,600.48c-.11,0-.2.11-.2.2v186.35c0,.11.09.2.2.2h37.25c.11,0,.2-.09.2-.2v-40.62h48.83c1.25,0,2.49-.05,3.69-.11,13.04-.63,25.67-4.79,36.51-11.95,20.52-13.55,32.77-36.31,32.77-60.89,0-40.25-32.73-72.98-72.98-72.98h-86.28ZM349.07,600.48s-.2.11-.2.2v186.35c0,.11.11.2.2.2h37.3s.2-.09.2-.2v-40.62h48.83c1.2,0,2.38-.05,3.56-.09l25.24,40.81s.09.09.15.09h43.78s.15-.05.17-.09c.04-.07.04-.13,0-.2l-32.6-52.7c20.43-13.57,32.62-36.25,32.62-60.78,0-40.25-32.73-72.98-72.95-72.98h-86.3ZM532.14,600.48c-.11,0-.2.09-.2.2v186.35c0,.11.09.2.2.2h37.25c.11,0,.2-.09.2-.2v-186.35c0-.11-.09-.2-.2-.2h-37.25ZM593.45,600.48c-.11,0-.2.11-.2.2v186.35c0,.11.09.2.2.2h37.25c.11,0,.2-.09.2-.2v-125.43l60.67,98.1c.07.11.26.11.33,0l60.65-98.08v125.41h-.02c0,.11.09.2.2.2h37.28s.2-.09.2-.2v-186.35s-.09-.2-.2-.2h-43.81s-.13.05-.15.11l-54.31,87.83-54.32-87.83s-.11-.11-.15-.11h-43.81ZM814.05,600.48s-.2.09-.2.2v106.82c0,43.96,35.76,79.73,79.72,79.73h79.53s.2-.09.2-.2v-55.69h36.88c.09,10.29,8.5,18.66,18.83,18.66h47.32c10.38,0,18.84-8.45,18.84-18.85s-8.44-18.86-18.84-18.86l-.02-.02h-47.32c-30.72,0-55.69-24.97-55.69-55.67s25-55.71,55.69-55.71c.11,0,.2-.11.2-.2,0-.11-.09-.2-.2-.2h-93.14c-.11,0-.2.09-.2.2v106.82c0,23.2-18.88,42.08-42.08,42.08s-42.08-18.88-42.08-42.08v-106.82c0-.11-.09-.2-.2-.2h-37.25ZM1132.23,600.48c-.11,0-.2.09-.2.2v55.67h-36.88c-.09-10.29-8.5-18.64-18.84-18.64h-47.32c-10.4,0-18.83,8.43-18.83,18.83s8.45,18.84,18.83,18.84h47.32c30.72,0,55.71,24.99,55.71,55.69v55.91c0,.11.09.2.2.2h159.06c.11,0,.2-.09.2-.2v-37.28s-.09-.2-.2-.2h-121.59v-36.86h84.34c.11,0,.2-.11.2-.22v-37.25c0-.11-.09-.2-.2-.2h-84.34v-36.88h121.59v.04c.11,0,.2-.09.2-.2v-37.28c0-.11-.09-.2-.2-.2h-159.06ZM206.16,638.15h48.83c19.47,0,35.33,15.84,35.33,35.31,0,11.45-5.59,22.22-14.97,28.84-5.94,4.22-12.98,6.47-20.36,6.47h-48.83v-70.62ZM386.56,638.15h48.83c19.47,0,35.31,15.84,35.31,35.31,0,11.45-5.57,22.22-14.94,28.84-5.94,4.22-13,6.47-20.36,6.47h-48.83v-70.62ZM239.87,828.12c-2.38,0-4.5.44-6.38,1.27s-3.45,1.97-4.72,3.41c-1.29,1.44-2.25,3.15-2.93,5.09s-1.01,4.02-1.01,6.23.31,4.07.92,5.94,1.53,3.54,2.73,4.96c1.2,1.44,2.73,2.58,4.57,3.41,1.86.85,3.95,1.27,6.49,1.27s4.76-.44,6.69-1.33c1.92-.87,3.52-2.06,4.81-3.54,1.29-1.46,2.25-3.15,2.88-5.07.63-1.9.94-3.86.94-5.94s-.33-4.06-.96-5.97c-.66-1.9-1.64-3.58-2.91-5.03-1.29-1.42-2.84-2.58-4.72-3.41-1.84-.85-4-1.27-6.42-1.27l.02-.03ZM551.3,828.12c-2.4,0-4.53.44-6.41,1.27-1.84.83-3.43,1.97-4.69,3.41-1.29,1.44-2.25,3.15-2.91,5.09-.68,1.94-1.03,4.02-1.03,6.23s.31,4.07.92,5.94,1.53,3.54,2.73,4.96c1.2,1.44,2.75,2.58,4.57,3.41,1.86.85,3.96,1.27,6.49,1.27s4.78-.44,6.68-1.33c1.92-.87,3.52-2.06,4.81-3.54,1.29-1.46,2.25-3.15,2.88-5.07.63-1.9.96-3.86.96-5.94s-.33-4.06-.98-5.97c-.63-1.9-1.62-3.58-2.88-5.03-1.27-1.42-2.84-2.58-4.7-3.41-1.86-.85-4-1.27-6.42-1.27l-.02-.03ZM413.45,828.15c-.9,0-1.81.04-2.77.04-.94.02-1.86.06-2.73.09s-1.51.05-1.92.09v30.78c1.46.15,2.93.26,4.43.37,1.49.11,2.88.15,4.19.15,3.61,0,6.56-.42,8.87-1.25,2.32-.83,4.13-1.94,5.44-3.34,1.31-1.4,2.23-3.02,2.75-4.87s.79-3.8.79-5.81c0-2.69-.37-5.11-1.14-7.32-.74-2.21-1.95-4.02-3.58-5.44-1.27-1.09-2.88-1.94-4.83-2.56-1.92-.63-4.41-.94-7.43-.94h-2.08ZM870.64,828.15c-.59,0-1.2.04-1.86.04-.66.02-1.31.06-1.94.09-.61.02-1.18.05-1.69.09v30.78h5.36v-13.2c.42.04.79.05,1.14.05h1.05l.02-.02,10.73,13.15h6.2l-11.3-13.94c2.1-.7,3.63-1.81,4.52-3.26.9-1.46,1.35-3.1,1.35-4.94,0-2.88-1.05-5.09-3.12-6.6-2.08-1.49-5.11-2.25-9.09-2.25h-1.38ZM470.15,828.19c-1.42,0-2.71.13-3.91.41-1.18.28-2.23.74-3.12,1.38-.87.63-1.57,1.46-2.1,2.49-.5,1.03-.77,2.3-.77,3.78,0,1.59.29,2.91.81,3.98.55,1.05,1.25,1.92,2.12,2.62.87.7,1.83,1.27,2.84,1.71,1.05.44,2.03.81,3.04,1.11.57.17,1.22.42,1.95.7.72.26,1.42.63,2.07,1.09s1.2.98,1.64,1.64c.44.61.66,1.4.66,2.29,0,1.18-.46,2.12-1.36,2.82-.92.7-2.36,1.05-4.35,1.05-1.86,0-3.52-.31-4.96-.9-1.46-.61-2.75-1.36-3.96-2.25l-1.37,5.03c1.27.72,2.8,1.31,4.59,1.81s3.72.76,5.77.76c1.42,0,2.82-.18,4.15-.48s2.51-.81,3.54-1.51c1.01-.72,1.83-1.62,2.45-2.77.59-1.16.9-2.58.9-4.26,0-1.57-.26-2.93-.83-4.04-.57-1.14-1.29-2.05-2.18-2.82-.87-.76-1.88-1.4-3-1.92-1.09-.5-2.21-.96-3.32-1.37-.9-.31-1.73-.61-2.45-.9-.72-.31-1.35-.61-1.88-.96-.55-.33-.96-.74-1.25-1.2-.28-.48-.44-1.03-.44-1.68l.02.09c0-1.09.39-1.9,1.2-2.42.81-.52,1.9-.79,3.3-.79.63,0,1.29.04,1.99.15s1.4.26,2.1.44c.7.17,1.38.42,2.03.7.63.26,1.25.59,1.81.96l1.27-4.94c-1.11-.5-2.45-.94-4.04-1.27-1.59-.37-3.25-.52-4.96-.52ZM667.67,828.34v30.78h18.75v-4.66h-13.37v-9.33h9.33l-.02-.02v-4.66h-9.33v-7.47h12.45v-4.65h-17.8ZM818.25,828.34v30.78h18.73v-4.66h-13.37v-9.33h9.33v-4.68h-9.33v-7.47h12.43v-4.65h-17.78ZM1167.76,828.34v30.78h18.75v-4.66h-13.37v-9.33h9.33l-.02-.02v-4.66h-9.33v-7.47h12.45v-4.65h-17.81ZM287.04,828.36v30.78h5.38v-20.27l9.09,20.27h4.28l8.85-20.27v20.27h5.31v-30.78h-6.12l-10.19,23.48-10.47-23.48h-6.12ZM361.02,828.36l-11.93,30.78h5.59l3.17-8.96h11.6l3.49,8.96h5.83l-13.13-30.78h-4.63ZM595.87,828.36v30.78h5.38v-14.01h8.78v-4.66h-8.8v-7.47h12.21v-4.65h-17.57ZM966.99,828.36l-11.95,30.78h5.59l3.17-8.96h11.6l3.49,8.96h5.83l-13.13-30.78h-4.61ZM1008.42,828.36v30.78h5.38v-30.78h-5.38ZM1102.21,828.36v30.78h5.38v-20.27l9.09,20.27h4.28l8.87-20.27v20.27h5.31v-30.78h-6.12l-10.22,23.48-10.48-23.48h-6.12ZM168.53,828.39v30.78h5.36v-22.57l13.52,22.57h6.58v-30.78h-5.37v22.61l-13.53-22.61h-6.55ZM714.77,828.39v30.78h5.38v-22.57l13.52,22.57h6.55v-30.78h-5.35v22.61l-13.53-22.61h-6.58ZM768.21,828.39v4.65h8.89v26.11h5.37v-26.11h8.89v-4.65h-23.16ZM911.54,828.39v4.65h8.91v26.11h5.35v-26.11h8.89v-4.65h-23.16ZM1042.94,828.39v30.78h5.37v-22.57l13.53,22.57h6.55v-30.78h-5.36v22.61l-13.52-22.61h-6.58ZM1214.87,828.39v30.78h5.38v-22.57l13.52,22.57h6.55v-30.78h-5.36v22.61l-13.52-22.61h-6.58ZM1268.33,828.39v4.65h8.89v26.11h5.37v-26.11h8.89v-4.65h-23.16ZM871.6,832.6h.9c2.36,0,3.93.35,4.78.98.85.66,1.29,1.68,1.29,3.08,0,1.55-.44,2.78-1.31,3.61s-2.14,1.25-3.82,1.25h-2.91v-8.87c.37-.04.74-.04,1.07-.04ZM413.72,832.62h1.75c2.18,0,4,.24,5.46.7,1.44.46,2.63,1.16,3.5,2.1.85.94,1.49,2.1,1.83,3.47.35,1.38.52,2.99.52,4.83,0,4.06-.88,6.99-2.6,8.81-1.7,1.81-4.45,2.7-8.19,2.71h-.02c-.56,0-1.23,0-2.03-.04-.81-.04-1.64-.09-2.51-.15v-22.37c.79-.04,1.57-.04,2.3-.04ZM239.69,832.71c1.62,0,3.01.28,4.22.83,1.22.55,2.21,1.29,2.97,2.3.79.98,1.35,2.16,1.72,3.54.37,1.38.57,2.88.57,4.57,0,1.57-.17,3.01-.55,4.39-.35,1.38-.89,2.56-1.68,3.56-.79,1.01-1.77,1.81-2.97,2.38-1.2.57-2.64.85-4.35.85l-.02.02c-2.93,0-5.16-.96-6.73-2.88-1.53-1.94-2.32-4.81-2.32-8.59,0-1.62.15-3.1.48-4.43s.85-2.49,1.59-3.45c.72-.96,1.68-1.71,2.84-2.25,1.16-.57,2.6-.83,4.22-.83ZM551.17,832.71c1.62,0,3.01.28,4.22.83s2.18,1.29,2.95,2.3c.79.98,1.36,2.16,1.73,3.54.37,1.38.57,2.88.57,4.57,0,1.57-.18,3.01-.52,4.39-.35,1.38-.94,2.56-1.7,3.56-.76,1.01-1.75,1.81-2.95,2.38-1.22.57-2.67.85-4.37.85v.02c-2.93,0-5.16-.96-6.71-2.88-1.55-1.94-2.33-4.81-2.33-8.59,0-1.62.17-3.1.5-4.43.31-1.33.85-2.49,1.57-3.45s1.68-1.71,2.84-2.25c1.18-.57,2.6-.83,4.22-.83ZM363.33,834.68l4.44,11.32h-8.46l4.02-11.32ZM969.31,834.68l4.44,11.32h-8.46l4.02-11.32Z"/>
</svg>