<?xml version="1.0" encoding="UTF-8"?>
<svg id="Layer_1" xmlns="http://www.w3.org/2000/svg" version="1.1" viewBox="0 0 1460 1460">
  <!-- Generator: Adobe Illustrator 29.2.1, SVG Export Plug-In . SVG Version: 2.1.0 Build 116)  -->
  <defs>
    <style>
      .st0 {
        fill: #231f20;
      }

      .st1 {
        fill: #fff;
      }
    </style>
  </defs>
  <circle class="st0" cx="730" cy="730" r="725"/>
  <g>
    <g>
      <polygon class="st1" points="723.31 846.35 733.06 846.35 727.93 833.28 723.31 846.35"/>
      <path class="st1" d="M516.37,832.04c-.99-.74-2.81-1.13-5.52-1.13h-1.02c-.39,0-.8.02-1.25.06v10.24h3.35c1.94,0,3.41-.48,4.41-1.45,1.01-.97,1.51-2.36,1.51-4.15,0-1.62-.5-2.79-1.49-3.56h0Z"/>
      <path class="st1" d="M55,806.12v71.84h1350v-71.84H55ZM103.22,861.54h-21.64v-35.54h20.57v5.38h-14.37v8.62h10.76v5.38h-10.76v10.77h15.45v5.38h0ZM213.12,861.54h-7.58l-15.62-26.06v26.06h-6.2v-35.54h7.59l15.62,26.12v-26.12h6.18v35.54h0ZM317.84,831.38h-10.28v30.15h-6.2v-30.15h-10.28v-5.38h26.75v5.38ZM421.32,861.54h-21.63v-35.54h20.55v5.38h-14.36v8.62h10.77v5.38h-10.77v10.77h15.45v5.38h0ZM523.5,861.54l-12.38-15.19h-1.21c-.41,0-.83-.02-1.32-.05v15.25h-6.18v-35.54c.58-.04,1.23-.08,1.96-.1.74-.04,1.49-.07,2.24-.09.76-.02,1.47-.04,2.14-.06.65-.02,1.19-.02,1.58-.02,4.6,0,8.1.87,10.5,2.61,2.4,1.75,3.61,4.28,3.61,7.62,0,2.12-.52,4.02-1.56,5.72-1.05,1.67-2.79,2.94-5.23,3.76l13.03,16.1h-7.17v-.02ZM635.95,831.38h-10.28v30.15h-6.18v-30.15h-10.29v-5.38h26.75v5.38ZM739.03,861.54l-4.04-10.33h-13.4l-3.67,10.33h-6.47l13.8-35.54h5.32l15.17,35.54h-6.73,0ZM837.75,861.54h-6.2v-35.54h6.2v35.54ZM955.37,861.54h-7.58l-15.62-26.06v26.06h-6.2v-35.54h7.6l15.62,26.12v-26.12h6.18v35.54h0ZM1065.72,861.54h-6.14v-23.42l-10.24,23.42h-4.95l-10.49-23.42v23.42h-6.2v-35.54h7.05l12.1,27.14,11.8-27.14h7.05v35.54h0ZM1163.58,861.54h-21.64v-35.54h20.57v5.38h-14.37v8.62h10.76v5.38h-10.76v10.77h15.45v5.38h0ZM1273.48,861.54h-7.58l-15.62-26.06v26.06h-6.2v-35.54h7.6l15.62,26.12v-26.12h6.18v35.54ZM1378.19,831.38h-10.28v30.15h-6.2v-30.15h-10.28v-5.38h26.75v5.38h0Z"/>
    </g>
    <g>
      <path class="st1" d="M246.67,669.76c0-48.37-39.35-87.72-87.72-87.72H55.23c-.13,0-.23.12-.23.23v224.02c0,.13.1.23.23.23h44.79c.13,0,.23-.1.23-.23v-48.83h58.71c1.5,0,2.98-.04,4.44-.12,15.68-.78,30.86-5.76,43.87-14.38,24.67-16.28,39.39-43.64,39.39-73.2h0ZM100.26,627.31h58.71c23.41,0,42.46,19.04,42.46,42.45,0,13.76-6.73,26.72-17.99,34.67-7.15,5.08-15.6,7.77-24.47,7.77h-58.71s0-84.89,0-84.89Z"/>
      <path class="st1" d="M272.08,806.52h44.81c.12,0,.23-.1.23-.23v-48.83h58.71c1.43,0,2.87-.04,4.29-.1l30.35,49.07c.04.06.12.1.19.1h52.63c.1,0,.17-.04.21-.12s.04-.15,0-.23l-39.18-63.36c24.55-16.3,39.2-43.59,39.2-73.06,0-48.37-39.35-87.72-87.7-87.72h-103.74c-.12,0-.23.12-.23.23v224.02c0,.13.12.23.23.23h0ZM400.3,704.42c-7.16,5.08-15.62,7.77-24.47,7.77h-58.71v-84.88h58.71c23.41,0,42.45,19.04,42.45,42.45,0,13.76-6.71,26.72-17.96,34.67h0Z"/>
      <path class="st1" d="M492.14,806.52h44.79c.13,0,.23-.1.23-.23v-224.03c0-.13-.1-.23-.23-.23h-44.79c-.13,0-.23.1-.23.23v224.02c0,.13.1.23.23.23h0Z"/>
      <path class="st1" d="M757.07,806.28c0,.13.12.23.23.23h44.81c.12,0,.23-.1.23-.23v-224.02c0-.12-.12-.23-.23-.23h-52.67c-.08,0-.15.04-.19.12l-65.29,105.58-65.29-105.58c-.04-.08-.12-.12-.19-.12h-52.66c-.13,0-.23.12-.23.23v224.02c0,.13.1.23.23.23h44.77c.13,0,.23-.1.23-.23v-150.79l72.95,117.94c.08.13.31.13.38,0l72.93-117.9v150.75h0Z"/>
      <path class="st1" d="M1404.77,627.31c.13,0,.23-.12.23-.23v-44.81c0-.13-.1-.23-.23-.23h-191.2c-.13,0-.23.1-.23.23v66.94h-44.34c-.12-12.37-10.23-22.4-22.63-22.4h-56.88c-12.5,0-22.65,10.15-22.65,22.65s10.16,22.65,22.65,22.65h56.88c36.94,0,66.98,30.04,66.98,66.96v67.21c0,.13.1.23.23.23h191.2c.13,0,.23-.1.23-.23v-44.81c0-.12-.1-.23-.23-.23h-146.17v-44.32h101.38c.13,0,.23-.12.23-.25v-44.8c0-.13-.1-.23-.23-.23h-101.38v-44.34h146.17,0ZM1146.35,716.42h-56.9c-36.92,0-66.96-30.02-66.96-66.94s30.04-66.98,66.96-66.98c.13,0,.23-.12.23-.23,0-.13-.1-.23-.23-.23h-111.97c-.13,0-.23.1-.23.23v128.42c0,27.89-22.69,50.58-50.6,50.58s-50.58-22.69-50.58-50.58v-128.43c0-.13-.1-.23-.23-.23h-44.8c-.12,0-.23.1-.23.23v128.42c0,52.85,43,95.84,95.84,95.84h95.62c.12,0,.23-.1.23-.23v-66.96h44.33c.12,12.39,10.23,22.42,22.63,22.42h56.9c12.48,0,22.63-10.18,22.63-22.66.02-12.5-10.15-22.67-22.63-22.67h0Z"/>
    </g>
  </g>
</svg>