<?xml version="1.0" encoding="UTF-8" standalone="no"?>
<svg
   id="Layer_1"
   viewBox="0 0 1450.71 1450.75"
   version="1.1"
   xmlns="http://www.w3.org/2000/svg"
   xmlns:svg="http://www.w3.org/2000/svg">
  <defs
     id="defs274">
    <style
       id="style272">.cls-1{fill:#211e1f;}</style>
  </defs>
  <path
     id="path276"
     class="cls-1"
     d="m 697.65039,0 v 0.72070312 c 5.48794,-0.20430059 11.01969,-0.0399767 16.54102,0.0351563 -5.51925,-0.0750182 -11.04575,-0.23902664 -16.54102,-0.0351563 -0.003,1.2037e-4 -0.007,-1.2062e-4 -0.01,0 C 316.87101,14.920689 7.4694471,327.18077 1.4394531,709.15039 c -5.24e-5,0.003 5.24e-5,0.007 0,0.01 -0.1698426,10.51682 -0.1699474,21.15317 0,31.66992 -0.1698422,-10.51681 -0.1699473,-21.15319 0,-31.66992 H 0 v 31.67968 H 1.4394531 C 6.9640736,1090.4851 262.64384,1378.4508 603.32031,1439.9102 h 0.0332 c 33.08272,5.9675 67.29352,9.7771 100.76562,10.7968 4.3,0.13 8.65094,-0.1 12.96094,0 h 18 12.94922 l 1.74023,-0.75 c 4.62,0.81 10.36094,-0.6914 14.46094,-0.6914 H 775.75 l 2.13086,-0.75 c 2.68,0.68 5.56985,-0.4994 7.58984,-0.6894 213.16979,-19.53 402.0797,-124.2996 527.5996,-297.1094 80.6299,-110.9999 133.7499,-255.09045 136.9199,-393.32031 10e-5,-0.003 0,-0.007 0,-0.01 0.067,-2.90128 0.022,-5.81447 0,-8.7246 0.022,2.90969 0.067,5.8238 0,8.7246 h 0.7207 V 744.42556 706.2654 693.31618 h -0.7207 c 0.067,2.90081 0.022,5.81492 0,8.72461 0.022,-2.91058 0.067,-5.82291 0,-8.72461 -3.56,-156.90984 -69.7698,-317.58066 -170.2597,-436.31054 C 1150.6206,104.47992 956.13956,6.2506976 754.50977,0.72070312 c -5.23068,-0.14568204 -10.48853,-0.0418134 -15.74024,0.005859 5.25129,-0.0472881 10.50997,-0.15152994 15.74024,-0.005859 V 0 h -26.64063 -4.30859 -0.01 z m 34.16992,0.73046875 c -0.19928,-0.001633 -0.47196,0.0107367 -0.70312,0.0253906 0.24868,-0.0154367 0.49017,-0.0288817 0.70312,-0.0253906 z m -2.1582,0.0742188 c 0.0199,8.6121e-4 0.0405,-6.5399e-4 0.0606,0 -0.0212,-7.182e-4 -0.0394,9.534e-4 -0.0606,0 z M 227.82031,655.83008 l 82.48047,139 H 167.75 l 39.24023,-30.96094 h 48.59961 l -37.07031,-61.9082 -117.35937,92.86914 H 51.119141 Z m 526.47657,7.63281 c 11.13889,-0.38572 22.79133,2.63594 31.89257,8.61719 v 17.2793 l -2.17968,0.74023 c -3.59,-5.18 -6.1804,-10.64954 -11.15039,-14.76953 -12.15999,-10.06999 -34.33853,-9.17022 -39.97852,7.50976 -8.46999,25.02998 26.58908,29.49072 41.28906,37.97071 37.68996,21.75998 18.79918,65.62898 -25.05078,63.20898 -10.17999,-0.56 -23.60907,-3.41024 -32.03906,-8.99023 v -17.62891 c 3.80999,-0.83 4.9107,4.64907 7.2207,7.53906 9.82999,12.28999 30.52892,17.62132 44.62891,10.11133 9.68999,-5.16999 13.61976,-17.04048 6.75976,-26.23047 -15.63998,-20.94998 -61.1096,-16.94074 -58.59961,-52.9707 1.50625,-21.63748 18.64221,-31.74385 37.20704,-32.38672 z m 589.80272,0.1543 c 28.1036,1.1956 51.0835,17.023 56.0098,47.54297 7.4,45.83995 -24.1198,79.30921 -70.5098,71.94922 -65.7699,-10.43999 -62.35,-112.52962 2.1699,-119.09961 l 0.01,-0.01 c 4.1862,-0.42625 8.3055,-0.55361 12.3203,-0.38281 z m -910.9414,0.0332 c 16.56124,-0.61774 33.72718,3.13083 47.76172,10.22656 v 17.27344 c -4.22999,0.64 -5.34914,-4.96133 -7.61914,-7.86133 -10.73999,-13.67998 -36.44087,-17.77968 -52.13086,-11.92968 -38.08996,14.18998 -37.83043,92.23149 1.26953,105.27148 14.24999,4.74999 37.62001,0.63936 48.75,-9.89063 2.55,-2.40999 5.06047,-8.09937 6.48047,-9.35937 1.06,-0.93 1.98,-0.78094 3.25,-0.71094 v 16.19922 c -10.74999,6.89999 -26.46025,10.41039 -39.24023,11.15039 -45.79996,2.64 -79.80046,-29.25973 -68.98047,-76.17969 6.92499,-29.99997 32.85091,-43.15967 60.45898,-44.18945 z m 435.3086,0.12305 c 17.58123,-1.2475 35.99407,2.8518 50.91406,10.46679 v 16.91993 c -3.77,0.88 -4.72039,-4.35063 -6.90039,-7.14063 -11.00999,-14.06998 -34.6601,-18.13882 -51.08008,-13.04883 -39.20996,12.14999 -39.83074,91.22955 -1.55078,105.26953 18.27998,6.71 48.54954,0.13881 56.76953,-19.45117 l 2.76172,-0.11914 v 17.2793 c -30.20997,14.31998 -74.19995,16.16153 -97.16992,-11.89844 -16.79999,-20.51998 -16.75186,-56.37018 0.32812,-76.66016 11.59499,-13.77498 28.3465,-20.36968 45.92774,-21.61718 z m 321.6992,0.5039 c 11.5563,-0.1425 23.0189,0.33219 33.7539,3.49219 60.52,17.80998 54.8993,111.77008 -16.8906,115.58008 -13.54,0.71 -38.2297,1.48 -51.1797,0 -2.64,-0.3 -3.2598,-2.35047 -1.5898,-3.48047 v -0.01 c 0.54,-0.36 1.8504,-0.0791 2.6504,-0.53907 2.18,-1.27 3.5401,-3.94117 3.6601,-6.45117 -2.07,-31.35997 2.7593,-66.27878 0.029,-97.21875 -0.18,-1.96 -0.6496,-4.50031 -1.8496,-6.07031 -1.66,-2.16 -9.2504,-3.27985 -2.9004,-5.08985 11.11,0.69 22.7602,-0.0704 34.3164,-0.21289 z m -172.1269,0.23243 v 18.7207 c -3.06,0.38 -3.7786,-3.41969 -5.7286,-5.42969 -2.26,-2.33 -11.801,-7.53125 -14.79097,-7.53125 h -32.75976 v 46.80078 h 25.56054 c 0.82,0 6.74985,-1.74023 7.83985,-2.24023 3.22004,-1.47 4.26064,-4.90094 7.64064,-4.96094 V 730.75 c -2.79,0.65 -2.9606,-2.04992 -4.3906,-3.16992 -1.90004,-1.5 -8.21114,-4.75 -10.37114,-4.75 h -26.27929 v 54.7207 h 32.75976 c 4.04997,0 13.59967,-4.92078 16.92967,-7.55078 1.21,-0.95 5.7414,-6.80039 7.1914,-5.40039 l -3.9609,18.71094 h -80.27931 c -0.75,-4.12 1.85891,-3.0704 3.87891,-4.40039 2.39999,-1.59 3.15156,-6.85938 3.35156,-9.60938 2.21,-29.71997 -1.71101,-62.17167 -0.041,-92.18164 -0.67,-2.96 -0.87039,-6.85984 -3.65039,-8.58984 -2.24999,-1.4 -4.31882,-0.0498 -3.54883,-4.00977 h 80.62886 z m -519.82816,0.01 h 56.50976 c 35.70997,3.44 49.03856,41.91049 13.8086,57.73047 -1.93,0.87 -4.10922,1.2107 -5.94922,1.9707 -0.72,0.29 -1.26102,-0.39984 -1.04102,1.16016 l 36.04102,49.63867 c 2.44,3.42 6.8393,4.09047 10.7793,3.98047 v 4.32031 h -15.47852 c -0.21,0 -1.22086,-0.66 -2.13086,-0.75 -8.62999,-0.9 -11.39969,-0.75977 -17.67969,-7.50976 L 538.16992,727.1604 h -12.59961 v 45 c 0,0.67 1.93883,5.44984 2.54883,6.08984 1.91,2 5.58039,0.75032 4.65039,5.07031 h -34.55859 c -1.03,-4.55999 3.55937,-3.02078 5.35937,-5.80078 0.76,-1.19 1.67985,-4.59008 1.83985,-6.08008 -1.71,-30.48997 2.26929,-63.42893 0.0293,-93.6289 -0.37,-5.04 -1.33867,-9.83 -7.13867,-10.5 z m 117.35937,0 h 80.61914 V 682.5 c -3.51999,0.85 -3.72984,-2.76031 -6.08984,-5.07031 -3.75,-3.67 -13.58001,-7.89063 -18.75,-7.89063 h -28.43945 v 47.52149 H 667.75 c 1.35,0 8.11977,-1.96047 9.50977,-2.73047 3.14999,-1.74 3.13945,-5.2207 6.68945,-4.4707 v 20.88085 c -2.98,0.54 -3.2386,-2.44968 -5.0586,-3.92968 -2.79999,-2.27 -11.22047,-4.70117 -14.73046,-4.70117 h -21.24024 v 55.4414 h 32.04102 c 4.46999,0 14.43852,-4.98141 17.97851,-7.9414 2.21,-1.85 3.34087,-5.22954 6.13086,-5.01954 l -2.88086,18.72071 h -80.6289 l 0.0391,-3.57032 c 5.81999,0.15 6.42039,-5.93047 7.15039,-10.48046 -1.47,-29.18998 2.00078,-60.33886 0.0508,-89.29883 -0.34,-5.02 -0.87063,-12.17039 -7.14062,-12.65039 z m 422.59959,0 h 25.9199 l -0.019,0.0195 63.3594,88.55078 V 674.9707 c 0,-3.11999 -3.6194,-7.84039 -7.1094,-7.65039 l -0.09,-2.79101 h 20.1601 l -0.09,2.79101 c -2.49,0.29 -3.8316,1.00969 -5.1016,3.17969 -0.79,1.35 -2.0097,6.02961 -2.0097,7.34961 v 109.07031 c -2.38,-0.24 -5.4288,0.83945 -7.2188,-1.06054 l -74.1309,-102.61915 v 88.91016 c 0,0.67 1.9408,5.44985 2.5508,6.08984 1.91,2 5.5785,0.75032 4.6485,5.07032 h -20.1582 l 0.039,-3.57032 c 5.85,0.24 6.7704,-6.63117 7.1504,-11.20117 2.38,-28.36997 -1.7812,-59.86815 0.049,-88.57812 -0.45,-3.49 -0.5486,-9.23047 -3.6386,-11.48047 -1.8,-1.31 -4.5206,-0.50094 -4.3106,-3.96094 z m 303.8574,4.19531 c -1.69,-0.0252 -3.4402,0.0728 -5.248,0.30469 -42.36,5.43 -44.0895,99.9897 -2.0195,108.92969 55.5674,11.80905 59.6603,-108.45231 7.2675,-109.23438 z m -816.45699,0.84571 v 51.83984 h 16.19922 c 20.54998,0 30.15046,-17.66072 24.48047,-36.7207 -1.9,-6.4 -9.50055,-15.11914 -16.56055,-15.11914 z m 655.16019,0 v 107.99023 h 32.039 c 3.41,0 13.0503,-5.49141 15.8203,-7.9414 23.31,-20.56998 22.1504,-76.69901 -5.5996,-93.70899 -3.69,-2.26 -14.0406,-6.33984 -18.1406,-6.33984 z m 269.2597,36.71875 c 0.1499,12.68678 0.15,25.46365 0,38.15039 0.1499,-12.68679 0.15,-25.46365 0,-38.15039 z" />
</svg>
