<?xml version="1.0" encoding="UTF-8" standalone="no"?>
<svg
   id="Layer_1"
   viewBox="0 0 1450.71 1450.71"
   version="1.1"
   xmlns="http://www.w3.org/2000/svg"
   xmlns:svg="http://www.w3.org/2000/svg">
  <defs
     id="defs353">
    <style
       id="style351">.cls-1{fill:#2a59a9;}.cls-2{fill:#1e3c70;}.cls-3{fill:#1b4175;}.cls-4{fill:#1e51a4;}.cls-5{fill:#211d1e;}.cls-6{fill:#1a3561;}.cls-7{fill:#211e1f;}.cls-8{fill:#1750a3;}.cls-9{fill:#1b468b;}.cls-10{fill:#1c4585;}.cls-11{fill:#1c3762;}.cls-12{fill:#2052a4;}.cls-13{fill:#2a5aa9;}.cls-14{fill:#322f31;}.cls-15{fill:#1a3662;}</style>
  </defs>
  <path
     id="path393"
     class="cls-7"
     d="M 701.24023 0 L 701.24023 0.72070312 C 699.57024 0.78070307 697.86922 0.66070318 696.19922 0.72070312 C 318.9596 15.070689 8.9494456 325.30952 1.4394531 704.11914 C 0.2694543 704.72914 0.77070308 706.5707 0.72070312 707.7207 C 0.66070318 709.0807 1.2399988 711.23906 0 712.03906 L 0 719.24023 L 0 730.75 L 0 730.75977 L 0 737.94922 C 1.2999987 738.75922 0.58070327 740.91953 0.72070312 742.26953 C 0.850703 743.50953 1.4294531 744.93039 1.4394531 745.15039 L 1.4394531 745.16016 C 3.1894514 772.80013 4.1395351 799.97026 8.0195312 827.49023 C 56.629483 1172.4699 346.60035 1434.2593 694.75 1449.2793 C 700.96999 1449.5493 707.25071 1449.88 713.4707 1450 C 713.47395 1450.0001 713.47723 1449.9999 713.48047 1450 L 713.48047 1450.7109 L 720.66992 1450.7109 L 720.67969 1450.7109 L 731.4707 1450.7109 L 738.66992 1450.7109 L 738.66992 1450 C 741.29992 1449.95 743.95985 1450.08 746.58984 1450 C 1010.6296 1442.18 1249.6493 1291.1504 1370.4492 1057.6406 C 1417.4892 966.71072 1447.8902 857.35943 1449.9902 754.51953 C 1449.9903 754.51628 1449.9902 754.51301 1449.9902 754.50977 L 1450.7109 754.50977 L 1450.7109 742.99023 L 1450.7109 732.91016 L 1450.7109 717.08008 L 1450.7109 717.07031 L 1450.7109 707 L 1450.7109 695.48047 L 1449.9902 695.48047 C 1442.4402 325.83084 1124.2901 9.3806945 755.23047 0.72070312 L 755.23047 0 L 747.31055 0 L 740.10938 0 L 733.64062 0 L 733.63086 0 L 718.51953 0 L 707.7207 0 L 701.24023 0 z M 793.00977 357.08984 L 937.36914 599 L 688.99023 599 L 757.75 545 L 841.61914 545 L 777.23047 437.75 L 572.7207 599 L 485.9707 599 L 485.96094 599 L 793.00977 357.08984 z M 558.30469 681.93555 C 571.33833 682.50367 584.45345 686.48094 594.67969 692.96094 C 594.05003 695.92934 595.50678 715.50791 594.67969 716.34766 C 594.23168 716.77073 592.24856 716.26718 591.46094 715.61914 C 589.86094 714.31914 585.50039 705.18008 583.15039 702.33008 C 569.0104 685.1801 536.98085 681.76987 526.38086 703.83984 C 508.76088 740.52981 566.59025 746.88017 585.99023 761.41016 C 619.0902 786.20013 606.41035 831.38969 566.65039 838.42969 C 546.63041 841.96968 522.98943 837.02991 504.68945 828.66992 L 504.68945 804.91016 C 505.92945 804.82016 506.91047 804.81008 507.98047 805.58008 C 509.12047 806.40008 513.11914 814.15946 515.11914 816.43945 C 531.17912 834.78943 576.30032 841.61083 584.82031 814.13086 C 594.8303 781.84089 543.86084 773.98952 525.63086 762.01953 C 507.42088 750.04954 500.36055 732.8499 507.56055 711.66992 C 515.08554 689.50744 536.58196 680.98867 558.30469 681.93555 z M 131.63477 681.94922 C 145.39975 681.46797 159.34439 683.37586 172.35938 686.88086 C 176.10937 687.89086 194.02094 693.55969 194.96094 696.67969 C 195.43094 698.21969 195.45961 714.03047 195.09961 715.98047 C 194.62961 718.55047 192.34 718.26023 190.75 716.74023 C 188.87 714.94024 186.21937 708.84062 183.60938 705.89062 C 169.59939 690.07064 142.12061 685.57032 122.39062 690.07031 C 67.44068 702.6003 65.079268 807.89908 114.69922 828.78906 C 135.9392 837.73905 170.89048 831.6099 185.73047 813.16992 C 188.33828 809.94263 189.91945 803.68322 194.38086 804.19141 L 194.38086 825.41016 C 165.35089 841.03014 123.63005 844.93092 93.330078 830.71094 C 37.150134 804.34096 36.39029 718.71958 91.990234 691.34961 C 104.28522 685.29962 117.86978 682.43047 131.63477 681.94922 z M 1316.6504 682.00977 C 1357.2604 679.36977 1391.4498 701.27004 1399.2598 742.25 C 1408.6498 791.50995 1381.4206 836.38094 1329.3906 839.46094 C 1221.2507 845.87093 1216.2805 688.53976 1316.6504 682.00977 z M 703.98047 682.24414 C 726.7242 680.90539 750.47088 686.19548 769.63086 695.48047 L 769.63086 717.78906 C 768.62086 717.63906 766.91062 718.13992 766.14062 717.66992 C 765.72063 717.40992 762.3993 710.74094 761.2793 709.21094 C 743.73931 685.19096 698.36013 681.60002 676.41016 701.25 C 642.45019 731.64997 646.7495 818.20947 696.18945 831.18945 C 716.44943 836.50945 747.43072 830.2299 760.9707 813.16992 C 762.2807 811.51992 765.70063 804.58055 766.14062 804.31055 C 766.91062 803.84055 768.63086 804.33945 769.63086 804.18945 L 769.63086 825.42969 C 730.3909 846.80967 666.86919 846.69004 639.44922 806.58008 C 620.15924 778.35011 621.57987 734.64927 644.33984 708.7793 C 659.49483 691.54931 681.23674 683.58289 703.98047 682.24414 z M 252.62109 683.08984 C 264.43733 682.77484 276.2347 682.49945 287.67969 683.18945 C 312.02966 684.65945 338.31953 698.16987 336.26953 726.08984 C 334.81953 745.87982 317.03928 757.44055 299.5293 762.06055 L 346.33984 826.11914 C 351.08984 831.50914 354.47016 833.96047 362.16016 832.98047 L 362.16016 838.01953 L 335.88086 838.01953 C 327.62087 838.01953 319.31953 831.79906 314.26953 825.78906 L 270.7207 764.58984 L 253.43945 764.58984 L 253.43945 824.71094 C 253.43945 827.25093 256.35016 833.16938 259.16016 834.10938 C 262.36015 835.17937 263.31906 832.7893 262.78906 838.0293 L 218.15039 838.0293 L 218.16016 838.00977 C 217.47016 832.88977 218.9493 835.19961 222.0293 833.59961 C 224.36929 832.38961 226.11086 829.18968 226.63086 826.67969 C 226.36086 786.47973 230.03054 743.02019 227.56055 702.99023 C 227.27055 698.19024 226.68906 690.13086 222.03906 687.63086 C 219.47907 686.26086 217.18922 687.80046 217.44922 683.23047 C 228.96921 683.76047 240.80486 683.40484 252.62109 683.08984 z M 1111.8613 683.10547 C 1123.5601 682.78797 1135.2406 682.51094 1146.5605 683.21094 C 1245.5904 689.33093 1248.9097 827.94056 1153.7598 838.06055 L 1077.0508 838.0293 C 1076.5308 832.8293 1077.4591 835.21906 1080.6191 834.03906 C 1084.4991 832.59906 1085.8802 826.91953 1086.4102 823.26953 C 1084.3102 783.06957 1089.2192 740.00082 1086.4492 700.13086 C 1086.1792 696.27086 1085.4404 690.34914 1081.9004 688.11914 C 1078.6404 686.05914 1076.1208 688.45023 1077.0508 683.24023 C 1088.4458 683.78023 1100.1626 683.42297 1111.8613 683.10547 z M 371.5 683.24023 L 476.60938 683.24023 L 476.60938 706.99023 C 473.10938 707.15023 471.70945 702.42914 469.43945 700.11914 C 465.11946 695.71915 452.05976 689.71094 446.00977 689.71094 L 406.76953 689.71094 L 406.76953 752.34961 L 437.36914 752.34961 C 442.38914 752.34961 451.62016 749.26015 455.66016 746.16016 C 457.27015 744.93016 457.32953 742.11024 460.76953 742.99023 L 460.76953 769.63086 C 457.00954 770.49086 457.21047 767.29055 455.48047 765.56055 C 452.49047 762.58055 442.90054 758.83008 438.81055 758.83008 L 406.76953 758.83008 L 406.76953 831.55078 L 448.16992 831.55078 C 455.34991 831.55078 469.10047 824.56921 474.48047 819.69922 C 476.47047 817.89922 477.49969 813.8993 480.92969 814.2793 L 477.33008 838.0293 L 371.5 838.0293 C 370.81 832.9093 372.28914 835.21914 375.36914 833.61914 C 379.60914 831.40914 380.59063 824.74992 380.89062 820.41992 C 383.61062 781.25996 378.79961 738.94918 380.84961 699.44922 C 380.16961 695.37922 379.43914 689.77039 375.36914 687.65039 C 372.28914 686.05039 370.81 688.36023 371.5 683.24023 z M 793.39062 683.24023 L 899.19922 683.24023 L 899.19922 706.99023 C 895.19922 707.67023 894.32953 703.38937 892.01953 700.85938 C 887.22954 695.60938 874.18991 689.7207 867.16992 689.7207 L 828.65039 689.7207 L 828.65039 752.35938 L 860.68945 752.35938 C 865.29945 752.35938 874.00063 749.22953 877.64062 746.26953 C 879.35062 744.87953 879.22039 742.16 882.65039 743 L 882.65039 769.64062 C 879.05039 770.55062 879.37023 767.39008 877.24023 765.33008 C 874.10024 762.29008 864.2107 758.83984 859.9707 758.83984 L 828.65039 758.83984 L 828.65039 831.56055 L 870.76953 831.56055 C 877.10952 831.56055 890.0104 825.29086 894.90039 821.13086 C 896.65039 819.65086 900.69945 813.9893 902.43945 814.2793 C 903.67945 814.4893 903.12008 815.63906 903.08008 816.28906 C 902.70008 823.08906 899.9307 831.10907 899.2207 838.03906 L 793.39062 838.03906 C 792.65063 833.68907 795.49047 834.99086 797.98047 833.63086 C 801.37047 831.77086 802.03024 826.73953 802.74023 823.26953 C 800.50024 782.93957 805.73929 739.36012 802.7793 699.41016 C 802.5493 696.20016 801.25914 690.23976 798.61914 688.25977 C 795.59914 685.98977 792.28063 688.64023 793.39062 683.24023 z M 925.86914 683.24023 L 958.63086 683.24023 L 1042.5 799.86914 L 1042.5 697.28906 C 1042.5 695.97906 1040.2207 690.14078 1039.2207 689.05078 C 1036.3107 685.87078 1031.8306 688.76999 1033.1406 683.25 L 1059.7793 683.25 C 1060.8493 688.95999 1057.4102 685.44914 1053.9902 688.61914 C 1052.9802 689.55914 1050.4199 694.82961 1050.4199 695.84961 L 1050.4199 843.08008 C 1047.7699 842.68008 1042.6609 843.98937 1040.7109 842.35938 C 1010.851 800.90942 981.80013 758.83004 951.66016 717.58008 C 949.02016 713.97008 946.47039 709.92976 943.15039 707.00977 L 943.15039 822.56055 C 943.15039 823.76055 944.68992 829.10914 945.41992 830.36914 C 945.97992 831.32914 947.69063 833.13086 948.64062 833.63086 C 951.72062 835.23086 953.19976 832.91907 952.50977 838.03906 L 925.86914 838.03906 C 925.13914 833.70907 928.05094 834.93086 930.46094 833.63086 C 932.87094 832.33086 934.06016 829.01054 934.91016 826.56055 L 935.23047 696.56055 C 934.91047 693.69055 932.98093 689.00039 930.46094 687.65039 C 927.94094 686.30039 925.13914 687.57023 925.86914 683.24023 z M 1320.25 688.5 C 1252.4001 693.01 1260.4891 851.60967 1334.7891 831.17969 C 1388.529 816.4097 1385.1099 684.18 1320.25 688.5 z M 253.41992 689.71094 L 253.41992 758.10938 L 280.41992 758.10938 C 282.92992 758.10938 291.07953 754.66094 293.51953 753.21094 C 312.47951 741.90095 314.42029 707.35944 296.57031 694.43945 C 294.72031 693.09945 287.41094 689.71094 285.46094 689.71094 L 253.41992 689.71094 z M 1112.3301 689.7207 L 1112.3301 831.55078 L 1152.2891 831.55078 C 1156.9691 831.55078 1168.1793 826.20093 1172.0293 823.21094 C 1206.1193 796.79096 1205.1605 720.26951 1166.8105 697.51953 C 1161.9206 694.61953 1149.8391 689.7207 1144.3691 689.7207 L 1112.3301 689.7207 z " />
</svg>
