<?xml version="1.0" encoding="UTF-8"?><svg id="Layer_1" xmlns="http://www.w3.org/2000/svg" viewBox="0 0 1450.8 1450.86"><defs><style>.cls-1{fill:#758336;}.cls-2{fill:#221e1f;}.cls-3{fill:#282626;}.cls-4{fill:#272122;}.cls-5{fill:#252021;}</style></defs><path class="cls-2" d="M734.4,0c5.87,1.41,12.61.6,18.72.72,184.34,3.75,368.28,89.49,495.01,221.02,118.62,123.12,198.07,298.24,201.95,470.86.48,21.22.47,43.58,0,64.8-1.38,62.14-14.2,128.66-32.93,187.74-90.56,285.7-354.87,491.55-656.11,504.14-22.86.96-46.94.95-69.84,0C313.37,1433.66,7.4,1118.73,1.44,740.83c-.17-10.52-.17-21.16,0-31.68C7.47,327.13,316.33,15.57,696.96.72c6.35-.25,12.77.17,19.14.03l1.74-.75h16.56ZM192.78,399.04c-9.78,1.21-16.72,9.98-17.13,19.58v432.03c.46,24.43,33.6,28.4,38.91,4.29l.03-437.77c-.18-11.29-10.93-19.48-21.81-18.14ZM270.56,410.57c-9.51.25-16.95,7.57-18.56,16.72l-.03,425.53c1.74,23.4,33.92,24.54,38.19,2.13l.03-427.68c-.86-9.68-10.12-16.95-19.63-16.69ZM647.11,412.01c-8.95,1.27-16.04,10-16.41,18.86v420.51c1.78,25.94,35.9,26.4,38.93,1.43v-422.66c-.94-11.59-10.92-19.79-22.52-18.14ZM723.42,414.88c-11.13,1.38-16.36,10.68-17.13,21.02-1.92,25.64.78,54.7.93,80.48,6.23,19.34,32.49,18.85,37.81-.71-1.42-26.89,2.47-56.82.2-83.37-.95-11.1-10.86-18.78-21.8-17.42ZM798.29,414.87c-7.55,1.2-14.03,7.98-15.59,15.37l.43,128.32c7.08,20.75,36.01,17.37,38.3-4.64-2.12-38.77,3.12-81.09.11-119.45-.97-12.36-10.42-21.64-23.25-19.6ZM949.51,455.2c-9.05,1.32-15.12,10.12-15.69,18.87v378.03c2.12,24.62,35.88,25.65,38.93,1.44l-.52-384.71c-3.53-10.16-11.96-15.19-22.72-13.62ZM1252.61,455.18c-7.35,1.26-14.48,9.25-14.96,16.72l.52,385.43c6.59,20.17,35.44,17.48,37.69-3.8l-.52-384.71c-3.17-9.83-12.39-15.41-22.74-13.64ZM569.33,473.18c-6.99,1.31-14.25,10.27-14.24,17.44v362.91c2.83,23.85,36.51,23.28,38.9-.76l.03-360.72c-.94-13.29-11.4-21.36-24.69-18.88ZM1026.54,530.8c-8.45,1.05-15.52,8.26-16.38,16.74l-.04,306.72c3.38,22.02,34,22.54,38.19.69l-.49-310.53c-2.9-9.21-11.6-14.82-21.28-13.62ZM1177.75,530.8c-9,1.28-15.57,9.33-16.38,18.18l-.03,303.12c2.1,24.36,34.84,25.75,38.91,2.14l.03-306.02c-1.31-11.28-11.18-19.03-22.53-17.42ZM722.71,642.39c-17.21,2.5-17.5,22.66-16.38,36.16,2.29,27.43,36.94,24.7,38.9,2.92.66-7.31.94-23.85-2.61-29.85-4.19-7.08-11.83-10.41-19.91-9.23ZM344.71,651.75c-8.98,1.1-16.11,8.51-17.1,17.46l-.04,184.33c3.3,23.93,36.37,23.1,38.9-.76l.04-182.16c-.61-11.26-10.44-20.26-21.8-18.87ZM420.31,651.75c-9.07,1.09-16.3,9.23-17.1,18.18l-.03,182.17c2.1,24.36,34.84,25.75,38.91,2.14l.03-185.06c-1.11-10.9-10.93-18.73-21.8-17.42ZM799.03,651.75c-8.03,1.1-15.2,7.93-16.39,16.01l.49,189.58c7.42,21.06,36.36,17.26,38.38-5.28-.58-62.04,1.24-124.36-.92-186.24-2.77-9.3-11.86-15.39-21.56-14.06ZM1101.41,652.45c-7.99,1.26-14.79,8.76-15.66,16.74l-.03,184.34c2.84,23.85,36.52,23.28,38.9-.76l.03-181.45c-.93-12.4-10.73-20.85-23.25-18.88ZM875.35,720.86c-8.57,1.05-15.75,8.31-17.03,16.81l-.11,115.14c2.45,23.68,34.71,24.63,38.83,1.33l.11-114.42c-.61-11.26-10.44-20.25-21.8-18.87ZM723.42,728.78c-10.08,1.25-16.41,9.99-17.01,19.7,1.69,33-2.56,68.77-.12,101.45,2.15,28.71,36.31,26.15,38.83,4.93l.11-108.66c-.88-10.98-11.04-18.75-21.81-17.42ZM495.91,729.51c-7.86,1.08-14.74,7.56-16.32,15.35l.43,112.48c6.33,19.23,33.06,18.02,37.6-1.73l.09-109.4c-.94-10.55-11.61-18.09-21.8-16.7ZM346.32,959.7c-23.45-12.46-57.43-8.89-63.16,21.44-3.14,16.65.47,37.01,16.59,45.65,13.68,7.34,36.91,5.57,48.73-4.81v-30.96l-1.08-1.08h-25.2c-2.11,2.09-.71,5.86-1.08,8.64h16.56v19.8c-7.18,5.17-21.51,5.24-29.51,2.15-15.64-6.06-17.51-29.21-12.81-43.03,7.26-21.35,36.68-18.74,50.96-6.28v-11.52ZM190.08,1020.9v-65.88c-2.4-1.76-8.49-1.74-10.8,0v74.52h47.52v-8.64h-36.72ZM432,954.66h-15.84v74.88h10.08v-64.08l19.76,49.72c2.78-.57,8.73,1.14,10.42-1.19l18.78-48.53v64.08h10.08v-74.88h-15.84l-19.43,49.68-18.01-49.68ZM627.84,1029.54h10.44l6.91-18.65,34.57.35,6.76,18.29h10.44l-28.52-74.92c-3,.62-10.75-1.2-12.46,1.19l-28.14,73.73ZM803.52,1029.18v-55.8h-9.36s0,7.2,0,7.2c-11.27-13.94-31.89-11.29-38.7,5.57-3.92,9.71-3.48,25.03,2.4,33.98,8.31,12.65,27.44,12.89,36.3.77,2.25,22.44-17.64,27.27-34.55,18l.42,9.44c18.41,6.16,40.87,4.16,43.49-19.16ZM920.16,1003.62v-11.88c0-8.94-11.23-18.7-19.88-19.72-24.83-2.93-37.34,18.49-30.71,40.79,6.25,20.99,31.23,20.95,48.35,14.5l.07-9.29c-15.95,8.43-38.92,8.18-40.31-14.4h42.48ZM1032.48,1029.54v-35.64c0-1.71-1.08-7.27-1.64-9.16-4.92-16.49-26.81-16.83-36.16-4.16l-.35-7.2h-9.36v56.16h9.36v-36.36c0-2.11,3.62-8.25,5.39-9.73,5.68-4.77,17.09-5.04,20.94,2.13.35.66,1.75,4.34,1.75,4.72v39.24h10.08ZM1117.99,972.13c-29.78,4.03-30.06,56.08,1.95,58.88,3.6.31,19.88-.37,21.15-4.1.43-1.27.45-8.07-.96-8.15-18.39,10.39-36.29,1.95-34.11-20.45,1.45-14.86,11.83-20.76,25.98-17.51,2.83.65,5.67,2.57,7.75,3.08s2.28-7.58.33-8.99c-4.16-3.01-17.02-3.44-22.07-2.76ZM1210.32,973.38h-10.08l22.15,55.2c-3.15,9.84-5.71,16.74-17.84,14.63v7.92h11.88c.32,0,4.29-1.86,4.92-2.27,3.76-2.44,5.71-7.2,7.57-11.15,8.07-17.12,18.95-43.18,24.61-61.07.34-1.08.85-2.08.69-3.27h-10.08l-16.92,43.2-16.92-43.2Z"/><path class="cls-1" d="M761.04,1449.27c-3.76,1.49-8.59.52-12.66.69-.93.04-1.65.75-1.74.75-13.64.47-27.39-.35-41.04,0l-1.74-.75c-4.02-.4-8.91.96-12.66-.69,22.9.95,46.98.96,69.84,0Z"/><path class="cls-1" d="M1450.8,757.39h-.72c.47-21.22.48-43.58,0-64.8h.72v64.8Z"/><path class="cls-1" d="M1.44,709.16c-.17,10.52-.17,21.16,0,31.68H0v-31.68h1.44Z"/><path class="cls-1" d="M717.84,0l-1.74.75c-6.37.14-12.79-.28-19.14-.03v-.72h20.88Z"/><path class="cls-1" d="M753.12,0v.72c-6.11-.12-12.85.69-18.72-.72h18.72Z"/><path class="cls-5" d="M774.53,980.03c25.66-4.36,24.59,39.09,6.96,41.52-25.03,3.46-23.47-38.71-6.96-41.52Z"/><polygon class="cls-3" points="648.72 1002.18 662.05 965.46 676.08 1002.18 648.72 1002.18"/><path class="cls-4" d="M910.8,996.42h-32.4c-.11-21.72,33.47-23.01,32.4,0Z"/></svg>