<?xml version="1.0" encoding="UTF-8"?><svg id="Layer_1" xmlns="http://www.w3.org/2000/svg" viewBox="0 0 1450.71 1450.71"><defs><style>.cls-1{fill:#8d8d35;}.cls-2{fill:#59642c;}.cls-3{fill:#231f20;}.cls-4{fill:#7b8737;}.cls-5{fill:#221e1f;}.cls-6{fill:#8c8c35;}.cls-7{fill:#59622b;}.cls-8{fill:#211d1e;}.cls-9{fill:#585e28;}.cls-10{fill:#5a612a;}.cls-11{fill:#5b622a;}.cls-12{fill:#bbbc33;}.cls-13{fill:#a8cf38;}.cls-14{fill:#211e1f;}.cls-15{fill:#798938;}.cls-16{fill:#a8c339;}.cls-17{fill:#899639;}.cls-18{fill:#2c2a2b;}.cls-19{fill:#a9cf38;}.cls-20{fill:#81ac40;}.cls-21{fill:#babc33;}.cls-22{fill:#81ad40;}.cls-23{fill:#bcd631;}.cls-24{fill:#b9d532;}.cls-25{fill:#a5bd39;}</style></defs><path class="cls-8" d="M733.63,0c1.42,1.3,4.45.71,6.48.72,2.39.02,4.8,0,7.2,0,2.63,0,5.29-.08,7.92,0,209.01,5.97,409.54,111.01,538.5,273.25,91.98,115.73,153.34,270.26,156.26,419.34.07,3.35,0,6.73,0,10.08,0,2.63-.02,5.29,0,7.92.01,2.03-.58,5.06.72,6.48v15.12c-1.3,1.42-.71,4.45-.72,6.48-.02,2.63,0,5.29,0,7.92,0,3.11.06,6.25,0,9.36-1.11,58.25-12.53,120.7-29.16,176.39-89.07,298.34-361.94,508.18-674.24,516.93-2.63.07-5.29-.05-7.92,0-2.39.04-4.81-.02-7.2,0-3.59.02-7.21.02-10.8,0-2.39-.02-4.81.04-7.2,0-2.63-.05-5.29.07-7.92,0-346.86-9.6-640.69-266.63-695.36-608.84-5.29-33.14-7.35-64.68-8.76-98.15.15-11.74-.2-23.54,0-35.28C7.87,326.28,317.24,15.77,696.92.72c2.63-.1,5.29.08,7.92,0,2.39-.08,4.81.06,7.2,0,1.57-.04,3.15.08,4.73.03l1.75-.75h15.12ZM1322.41,504.18c-36.14,3.71-42.91,43.16-40.16,72.86,3.49,37.76,13.95,87.08,24.83,123.48,5.9,19.71,19.2,64.21,45.23,63.8,31.02-.48,15.58-54.77,13.53-72.16-2.44-20.66-2.3-45.98-1.56-66.9,1.32-37.32,20.57-127.48-41.88-121.07ZM935.22,570.93c-5.67,3.91-9.56,6.56-12.37,13.18-7.46,17.59-.49,63.05,3.23,82.7,7.91,41.77,36.93,154.37,100.09,109.18,36.09-25.82,66.74-108.22,60.86-151.33-8.93-65.48-86.51-94.25-143.02-103.92-24.43-4.18-76.39-12.94-87.1,17.59-4.05,11.55,1.06,25.83,12.16,31.43s34.79,1.67,47.77,1.13c6.1-.25,12.29.24,18.39.04ZM328.15,525.78c-29.11,2.06-41.51,27.62-47.15,52.93-7.56,33.94-4.2,69.19-8.97,103.35-2.02,14.51-4.78,36.92-17.57,12.01-19.83-38.63-8.97-101.82-45.03-130.64-10.05-8.03-24.04-11.47-35.46-3.9-13.91,9.22-7.53,28.89-8.37,42.75-3.53,58.08-68.39,130.58-98.24,180.38-13.74,22.92-31.62,60.47,3.64,74.71,45.93,18.55,73.06-44.07,86.27-76.95,12.33-30.69,17.11-57.61,25.64-88.84,4.11-15.07,14.21-50.04,29.36-20.11,10.45,20.66,16.45,48.88,24.57,71.19s26.39,72.26,55.73,69.38c28.3-2.78,22.83-43.97,22.72-62.88-.29-51.49,8.76-109.25,32.78-155.2,8.34-15.95,23.81-33.04,14.69-52.09-6.04-12.61-21.61-16.99-34.61-16.07ZM1209.38,567.54c-34.96,1.73-80.73,16.7-97.89,49.7-23.33,44.88,24.12,76.34,59.39,92.04,19.05,8.48,57.05,17.26,57.29,43.51.21,22.9-20.45,27.52-39.15,26.19-32.97-2.35-70.93-39.27-99.7-6.09-30.84,35.57,16.34,59.69,46.05,66.22,53.9,11.85,151.58-17.2,155.55-82.77,3.04-50.26-33.64-76.32-76.68-90.41-9.58-3.13-32.6-7.05-39.19-13.36-5.12-4.89-4.46-12.69-1.38-18.52,11.72-22.18,53.63-5.15,72.86-7.06,21.59-2.13,27.57-29.82,14.83-44.89-11.78-13.94-35.01-15.4-51.97-14.56ZM708.34,657.42c2.01,1.3,1.68,19.26,1.53,22.57-2.71,57.07-29.52,154.73-.37,205.57,12.02,20.96,39.8,37.12,61.81,20.02,31.81-24.71.43-71.03-8.35-99.4-15.01-48.51-13.97-98.18-13.52-148.53.12-13.12,3.27-36.52-.48-48.42s-21.38-19.36-32.95-18.86c-30.63,1.31-57.27,53.13-75.96,73.81-23.05,25.5-38.79,19.77-54.14-8.53-12.51-23.08-21.74-58.19-55.59-55.11-32.04,2.91-25.52,30.26-24.9,52.8.43,15.77-.47,34.68-2.28,50.34-2.77,23.94-24.33,94.61,20.61,89.73,21.96-2.39,23.85-37.82,22.66-54.35-1.01-14.05-9.07-36.7-2.78-49.6,5.63-11.54,13.73-3.2,18.21,3.93,13.84,22.04,15.7,63.85,51.82,59.62,21.61-2.53,53.12-41.86,65.52-59.04,3.81-5.27,22.33-35.5,25.43-36.49.8-.25,3.13-.44,3.71-.06ZM400.87,605.69c-36.63,3.73-61.1,45.26-65.28,78.71-6.85,54.78,44.06,119.43,102.18,90.66,76.99-38.11,51.53-178.37-36.9-169.37ZM814.13,612.9c-9.77.92-21.46,4.73-27.59,12.73-14.77,19.26-.65,70.63,2.44,94.07,5.46,41.47,3.85,83.32,8.03,124.44,2.48,24.44,11.99,41.41,39.36,30.02,34.05-14.18,4.02-55.7-1.88-79.02-1.69-6.68-6.05-26.64,1.12-30.46,7.43-3.95,27.66-.84,35.54,2.44,23.46,9.77,45.6,57.51,55.57,80.5,12.82,29.56,31.23,97.57,65.24,107.55,28.19,8.27,47.55-19.59,49.14-44.76,2.94-46.45-44.73-79.71-73.12-109.82-22.15-23.49-43.35-49.73-58.32-78.47-22.52-43.24-30.61-115.32-95.52-109.23ZM1332.17,842.1c21.82,21.82,65.22,10.31,68.13-22.44,3.22-36.14-22.98-50.12-55.26-40.14-25.89,8.01-30.81,44.64-12.88,62.58ZM210.95,865.03c.78-2.77-.57-8.68,0-11.88h-7.2c-.18,5.34,1.86,10.58-5.39,10.65-11.78.12-15.6-15.8-5.19-20.15,7.64-3.2,11.93,2.54,13.72,2.19.51-.1,3.94-3.51,4.02-3.95.57-3.16-10.59-6.09-13.27-6.09-24.03,0-23.96,34.64,0,34.61,2.85,0,12.48-2.39,13.32-5.39ZM231.65,836.06c-21.28,2.78-19.36,33.68,1.97,34.42,25.93.89,24.42-37.86-1.97-34.42ZM492.27,836.06c-22.83,2.98-19.07,36.74,4.78,34.29,23.15-2.38,19.76-37.49-4.78-34.29ZM272.14,836.59v32.04c0,1.98,7.92.77,7.92.36v-17.28c4.46,3.34,5.57,14.93,11.88,14.48,2.24-.16,7.23-13.01,10.43-14.48v18h7.2v-33.12c-2.16.21-5.11-.64-6.9.66-2.07,1.51-8.04,14.34-10.5,17.58-.55.72-.52,1.22-1.67,1.21s-9.59-18.29-11.31-19.29c-1.25-.72-5.31.19-7.05-.15ZM350.62,869.7l-14.02-32.41c-1.48-1.56-6.51.71-8.94.1l-13.03,32.32c9.27,1.97,6.85-3.58,9.7-6.5.91-.93,13.47-1.14,15.04-.6,1.71.59,2.08,5.94,3.31,6.77,1.46.98,5.99,0,7.95.32ZM356.02,836.59c-.24.37-1.08.88-1.08,1.08v30.96c0,.08,1,1.08,1.08,1.08h18c.3,0,4.91-1.9,5.63-2.29,10.31-5.49,11.57-20.75,1.88-27.54-.86-.6-6.22-3.29-6.79-3.29h-18.72ZM439.89,836.59v33.12h7.2v-18.72c1.21-.26,1.46.38,2.15,1.09,4.85,4.99,9.21,11.77,14,16.96,1.95,1.28,4.63.49,6.89.67v-33.12h-7.2v18.72c-5.76-5.22-10.47-11.72-15.27-17.84l-7.77-.88ZM533.49,836.59v33.12h7.2v-18c4.3,1.87,6.68,14.47,11.16,14.47,4.17,0,7.74-12.01,11.16-14.47v17.28c0,.41,7.92,1.62,7.92-.36v-30.96c0-1.37-5.97-1.49-7.21-.73-1.72,1.06-10.83,20.32-11.86,19.81l-11.12-19.11c-1.81-1.85-4.85-.82-7.24-1.04ZM597.45,836.71c-2.06,0-6.85-.8-8.19.58l-14.02,32.41c2.2-.04,5.49.33,7.44-.83,2.8-1.68.06-7,8.04-7.14,1.16-.02,9.31.87,9.73,1.13,1.36.81,2.16,6.59,3.35,6.88,1.93.46,5.26-.38,7.43-.03l-13.79-33ZM616.28,869.71h19.08c.33,0,5.31-2.19,6.04-2.6,10.02-5.65,10.78-21.8.59-27.79-.76-.45-6.27-2.73-6.63-2.73h-19.08v33.12ZM419.73,853.15h-12.96v5.76h11.88c1.39,0,1.14-4.6,1.08-5.76Z"/><path class="cls-17" d="M1.44,742.99c-.04-.97-.63-3.18-.72-5.04-.12-2.3.67-5.5-.72-7.2v-11.52c1.32-1.66.7-4.93.72-7.2.01-1.36-.49-3.54.72-4.32-.2,11.74.15,23.53,0,35.28Z"/><path class="cls-7" d="M731.47,1449.99v.72h-10.8v-.72c3.59.02,7.21.02,10.8,0Z"/><path class="cls-25" d="M1450.71,703.4h-.72c0-3.35.07-6.73,0-10.08h.72v10.08Z"/><path class="cls-16" d="M1450.71,756.67h-.72c.06-3.11,0-6.25,0-9.36h.72v9.36Z"/><path class="cls-15" d="M1450.71,747.31h-.72c0-2.63-.02-5.29,0-7.92h.72v7.92Z"/><path class="cls-4" d="M1450.71,711.32h-.72c-.02-2.63,0-5.29,0-7.92h.72v7.92Z"/><path class="cls-12" d="M755.23,0v.72c-2.63-.08-5.29,0-7.92,0v-.72h7.92Z"/><path class="cls-13" d="M713.48,1449.99v.72h-7.92v-.72c2.63.07,5.29-.05,7.92,0Z"/><path class="cls-21" d="M704.84,0v.72c-2.63.08-5.29-.1-7.92,0v-.72h7.92Z"/><path class="cls-19" d="M746.59,1449.99v.72h-7.92v-.72c2.63-.05,5.29.07,7.92,0Z"/><path class="cls-24" d="M.72,737.95h-.72v-7.2c1.39,1.7.6,4.9.72,7.2Z"/><path class="cls-23" d="M0,719.24v-7.2h.72c-.02,2.26.6,5.54-.72,7.2Z"/><path class="cls-1" d="M747.31,0v.72c-2.39,0-4.8.02-7.2,0v-.72h7.2Z"/><path class="cls-6" d="M712.04,0v.72c-2.39.06-4.81-.08-7.2,0v-.72h7.2Z"/><path class="cls-20" d="M720.68,1449.99v.72h-7.2v-.72c2.39.04,4.81-.02,7.2,0Z"/><path class="cls-22" d="M738.67,1449.99v.72h-7.2v-.72c2.39-.02,4.81.04,7.2,0Z"/><path class="cls-2" d="M1450.71,739.39h-.72c.01-2.03-.58-5.06.72-6.48v6.48Z"/><path class="cls-9" d="M1450.71,717.8c-1.3-1.42-.71-4.45-.72-6.48h.72v6.48Z"/><path class="cls-11" d="M740.11,0v.72c-2.03-.01-5.06.58-6.48-.72h6.48Z"/><path class="cls-10" d="M718.52,0l-1.75.75c-1.58.05-3.16-.07-4.73-.03v-.72h6.48Z"/><path class="cls-5" d="M829.2,664.69c13.6-2.51,35.97,16.24,26.11,29.7-13.06,17.82-36.01-3.18-33.77-20.1.54-4.06,3.45-8.83,7.66-9.61Z"/><path class="cls-14" d="M947.47,572.36c.22-1.32,3.69-.77,4.67-.7,22.28,1.58,63.1,13.34,77.38,31.33,20.71,26.08-3.65,66.65-27.11,82.28-32.39,21.58-37.36-26.37-38.38-47.75-.6-12.57.74-23.76,1.43-36,.81-14.56-3.52-24.5-17.99-29.16Z"/><path class="cls-14" d="M397.23,627.97c38.05-5.93,56.03,63.89,19.91,68.15-22.37,2.63-59.91-13.33-50.72-41.36,3.32-10.11,20.27-25.15,30.81-26.79Z"/><path class="cls-5" d="M362.86,863.23v-19.8c0-2.48,11.27.01,13.21,1.19,5.61,3.4,5.61,13.64,0,17.06-3.07,1.88-9.73,2.39-13.21,1.55Z"/><path class="cls-3" d="M623.48,843.43c.69-2.21,10.36-.27,12.41.55,6.46,2.61,7.37,13.21,1.79,17.24-2.27,1.64-14.2,4.3-14.2.92,0-3.69-.74-16.33,0-18.72Z"/><path class="cls-5" d="M233.83,842.5c13.96-1.12,14.71,21.04,1.16,21.38-12.81.33-15.03-20.27-1.16-21.38Z"/><path class="cls-5" d="M493.74,842.5c14.42-1.43,15.1,20.45,1.87,21.41s-15.5-20.06-1.87-21.41Z"/><path class="cls-18" d="M326.86,856.75c1.83-3.12,2.53-6.84,3.99-10.09.36-.81,0-1.81,1.4-1.44.6.16,4.65,9.87,4.69,11.52h-10.08Z"/><path class="cls-18" d="M588.2,856.75c.99-1.96,3.36-11.54,5.39-11.53.62,0,4.46,10.01,4.69,11.53h-10.08Z"/></svg>