<?xml version="1.0" encoding="UTF-8"?>
<svg id="Layer_1" xmlns="http://www.w3.org/2000/svg" version="1.1" viewBox="0 0 1450.79 1450.71">
  <!-- Generator: Adobe Illustrator 29.2.1, SVG Export Plug-In . SVG Version: 2.1.0 Build 116)  -->
  <defs>
    <style>
      .st0 {
        fill: #221e1f;
      }
    </style>
  </defs>
  <path class="st0" d="M743.15-.29c.75,1.19,2.73.72,3.95.73,376.51,3.94,698.53,326.25,703.17,702.45.02,1.22-.46,3.2.73,3.95v36.01c-1.19.75-.72,2.73-.73,3.95-3.83,366.36-309.03,679.78-672.92,701.74l-40.68,2.17h-21.6l-39.96-2.17C314.08,1423.66,24.97,1132.34,2.18,771.28c-.76-12.09.22-24.53-2.17-36.36.18-6.7-.25-13.47,0-20.16.44-11.77,1.37-24.41,2.17-36.36C27.24,303.08,332.47,9.66,708.59-.29h34.57-.01ZM97,752.73c30.83-1.96,64.72,5.42,93.66-7.3,82.77-36.4,61.39-159.05-27.17-167.71l-112.48.03v295.97h1348.92l1.08-1.08v-115.92h-145.92l-1.08-1.09v-43.91h102v-45h-102v-42.94l1.08-1.06h145.92v-45h-192v67h-44.65c-.12-11.52-9.01-21.36-20.5-22.35-19.76-1.71-41.93,1.32-61.95.03-27.99,5.62-25.73,43.19,3.56,45.39,25.37,1.9,59-4.81,82.25,4.88,24.7,10.29,39.73,33.77,41.31,60.24,1.34,22.45-1.06,46.22-.03,68.81h-190v-67h44.68c.17,11.38,9.11,21.31,20.59,22.36,20.2,1.84,43.58-1.18,64.09-.35,26.18-7.09,23.27-42.89-4.71-45.08-37.73-2.95-77,10.44-106.37-20.85-34.8-37.08-16.61-98.56,32.61-110.87l11.16-2.21h-107.05v132.88c0,24.53-27.29,46.52-51,46.52s-51-21.83-51-46.52v-132.88h-45l-.03,129.32c.85,38.45,24.21,73.26,59.34,87.82l24.27,6.86h-111.57v-224h-52.95l-65.55,105.14-65.55-105.14h-52.95v224h-27.91l-1.09-1.08v-222.92h-45v224h-28.53l-39.2-63.7c31.61-20.69,45.69-59.66,35.77-96.34-9.92-36.68-40.49-60.52-76.28-63.97l-111.75.03v223.97H97v-48.97h0Z"/>
  <polygon class="st0" points="753 651.96 753 801.71 607 801.71 607 651.96 680 768.58 753 651.96"/>
  <path class="st0" d="M313,706.7v-84.99h60.87c28.35,0,47.29,32.42,37.45,58.34-4.21,11.09-20.04,26.66-32.41,26.66h-65.91Z"/>
  <path class="st0" d="M97,706.71v-85h60.16c36.01,0,54.52,47.47,28.49,73.14-4.01,3.95-17.3,11.86-22.72,11.86h-65.92,0Z"/>
  <polygon class="st0" points="376.41 752.71 405.96 801.71 313 801.71 313 752.71 376.41 752.71"/>
  <path class="st0" d="M1024,820.72c2.23.23,5.62-.81,7.22,1.03l11.79,25.6,11.44-25.94c1.14-1.17,6.32-1.28,7.55.38v34.92h-6v-22.32l-10.03,21.87-5.52-.25c-3.43-7.07-5.88-15.35-10.45-21.62v22.32h-6v-36h0Z"/>
  <path class="st0" d="M1240,821.79c.49-1.6,7.07-1.54,8.37-.37,4.85,7.47,8.95,16.31,14,23.55.44.64-.13,1.33,1.63.94v-25.2h5v36l-7.8-.12-15.2-25.08v25.2h-6v-34.92Z"/>
  <polygon class="st0" points="180 820.71 187.54 821.44 203 846.63 203 820.71 208.21 820.81 209.37 822.51 208.71 856.39 201.17 856.04 186 831.51 186 856.71 180 856.71 180 820.71"/>
  <polygon class="st0" points="928 856.71 922.79 856.61 921.63 854.91 922.29 821.02 929.77 821.44 945 846.63 945 820.71 951 820.71 951 856.71 943.39 856.04 928 831.51 928 856.71"/>
  <path class="st0" d="M510.67,820.71c9.96,1.52,12.86,15.69,3,19.45l11.33,16.54-6.67-.36-10.29-14.08-3.05-.67v15.12h-6v-34.92l1-1.08c3.35.36,7.43-.49,10.67,0h0ZM505,825.79v10.08c12.56,2.28,12.39-11.71,0-10.08Z"/>
  <path class="st0" d="M741.78,856.79l-6.56-.33-3.68-9.75h-14.38l-3.06,10-6.46.08c1.68-4.3,12.13-34.97,13.78-35.96,1.31-.79,4.91-.8,5.76.8l14.59,35.17h0ZM728.67,841.71l-2.34-7.38-2.69-5.57-3.61,12.95h8.64Z"/>
  <polygon class="st0" points="416 820.71 416 826.71 402 826.71 402 835.71 412 835.71 412.01 839.46 401.68 840.16 401.38 850.71 415.9 850.71 416.85 851.95 416.96 856.71 396.06 856.71 395 855.58 395 821.83 396.09 820.71 416 820.71"/>
  <path class="st0" d="M1159,820.71v6h-15v9h11v3.75l-10.32.7-.31,10.55h14.52c1.58,1.34,1.65,4.55,0,6h-19.83l-1.06-1.13v-33.75l1.09-1.13h19.91Z"/>
  <polygon class="st0" points="98 820.71 98 826.71 83.6 826.71 84.27 834.83 94 835.56 93.99 839.46 83.54 840.16 83.23 850.71 99 850.71 99 856.71 78 856.71 78 820.71 98 820.71"/>
  <path class="st0" d="M631.33,826.71h-9.33v30.37c-1.42,1.96-3.99.92-6,1.13v-31.5l-9.37-.32c-1.11-.88-.98-4.81.37-5.68h23.33l.9,1.24.1,4.76Z"/>
  <polygon class="st0" points="314 820.71 314 826.71 304 826.71 304 856.71 298 856.71 298 826.71 287 826.71 287 820.71 314 820.71"/>
  <polygon class="st0" points="1375.24 826.71 1364 826.71 1364 856.71 1358 856.71 1358 826.71 1346.75 826.71 1347.07 821.66 1374.01 821.09 1375.14 822.17 1375.24 826.71"/>
  <path class="st0" d="M834,820.71v36h-6v-34.92c1.42-1.88,3.99-.88,6-1.08Z"/>
</svg>