<?xml version="1.0" encoding="UTF-8"?>
<svg id="Layer_1" xmlns="http://www.w3.org/2000/svg" version="1.1" viewBox="0 0 1450.83 1450.71">
  <!-- Generator: Adobe Illustrator 29.2.1, SVG Export Plug-In . SVG Version: 2.1.0 Build 116)  -->
  <defs>
    <style>
      .st0 {
        fill: #221e1f;
      }
    </style>
  </defs>
  <path class="st0" d="M744.56,0c.75,1.19,2.73.72,3.95.73,114.2,1.2,233.74,36.47,332.75,92.02,218.75,122.71,365.72,359.37,368.84,612.46.02,1.22-.46,3.2.73,3.95v31.68c-1.19.75-.72,2.73-.73,3.95-4.02,384.03-328.93,700.4-710.95,705.19-1.22.02-3.2-.46-3.95.73h-18.72c-.75-1.19-2.73-.72-3.95-.73C337.19,1445.94,26.14,1145.09,2.29,772.14c-.71-11.1.24-22.7-2.17-33.47.29-9.09-.39-18.28,0-27.36,3.84-90.37,20.71-178.4,55.1-262.04C164.15,184.33,420.39,7.62,707.84,0h36.72,0ZM96.42,507.03c-9.79,1.68-19.09,10.17-20.02,20.3l.03,396.01c1.07,9.91,11.94,19.65,21.93,19.83h1255.66c11.83-.96,21.46-10.75,21.96-22.68v-390.99c-1-12.59-10.73-22.17-23.4-22.69l-1256.17.22h.01Z"/>
  <path class="st0" d="M96.09,527.22c.3-.37,1.99-1.35,2.48-1.45l1255.1.13c2.42.99,3.72,3.15,3.6,5.76l-.36,389.21c-.99,2.42-3.15,3.72-5.76,3.6l-1253.16-.35-2.31-2.01-.56-390.43c.03-1.51-.05-3.19.97-4.44v-.02ZM202.43,741.55c30.71-1.34,61.28,5.62,88.49-11.94,59.28-38.25,34.17-129.84-36.99-134.24-28.41-1.76-58.58,1.4-87.18,0l-2.48,1.12v185.39h38.16v-40.32h0ZM504.09,781.87l-32.27-52.2c57.87-40.75,33.77-130-37.9-134.3l-88.94.03v186.47h37.44v-40.32h53.28l24.84,40.32h43.56-.01ZM565.29,595.4h-37.44v186.47h37.44v-186.47ZM633.68,595.4h-43.56l-1.08,1.08v185.39h38.16v-124.55l60.83,97.2,60.84-97.2v124.55h37.44v-186.47h-43.56l-54.37,87.83c-.81.54-6.09-8.35-6.77-9.42-16.46-25.8-32.09-52.23-47.94-78.41h.01ZM847.51,595.4h-37.44l-.03,113.42c2.86,33,25.9,61.41,57.8,70.35,2.46.69,9.66,2.69,11.71,2.69h89.63v-55.44h36.36c1.64,1.16.84,3.35,1.4,5.08,2.63,8.13,9.58,12.94,18.01,13.66,11.14.96,39.53,1.31,50.1-.35,20.53-3.23,21.26-32.78,1.6-36.95-28.69-6.08-60.22,8.52-86.21-12.42-35.18-28.35-24.66-82.76,17.47-96.97l15.27-3.08h-91.43v111.95c0,9.14-8.6,22.02-15.46,27.74-20.23,16.86-52.15,10.38-64.12-12.95-1.3-2.54-4.65-11.63-4.65-14.07v-112.67h0ZM1287.4,595.4h-159.11v56.16h-37.44c1-8.32-6.52-16.91-14.37-18.39-8.36-1.58-45.4-1.43-54.33-.27-20.86,2.72-20.83,34.28-.59,37.19,25.9,3.73,54.15-6.33,78.66,7.73,14.45,8.29,28.06,27.51,28.06,44.65v59.4h159.11v-37.44h-121.67v-36.72h84.23v-37.44h-84.23v-37.44h121.67v-37.44h0ZM234.69,823.07c-18.8,1.05-18.97,34.67,4.03,31.45,17.21-2.41,16.22-32.58-4.03-31.45ZM401.86,853.87c12.42,2.24,26.68,1.16,26.68-14.76s-13.77-16.97-26.68-15.48v30.24ZM546.43,823.07c-19.45,1.04-19.19,33.77,2.67,31.52,18.59-1.92,17.33-32.59-2.67-31.52ZM861.19,823.63v30.24h5.04v-12.96l2.87.37c4.89,4.7,7.75,14.42,15.84,12.59l-10.03-12.68c-.3-1.66,3.88-2.76,4.67-5.27,3.89-12.36-9.69-13.88-18.4-12.28h.01ZM164.99,823.63v30.24h5.04v-21.6l13.11,21.45,7.05.15v-30.24h-5.76v21.6l-12.59-20.89-6.85-.71ZM283.07,823.63v30.24h5.04v-18.72c2.09-.39,1.15.61,1.63,1.58,2.63,5.38,4.89,10.97,7.35,16.43,1.17,1.2,4.43,1.2,5.35-.45l7.99-17.57v18.72h5.76v-30.24l-6.37.12c-2.96,5.96-5.1,12.34-7.91,18.37-.45.96-1.41,4.19-2.64,3.84l-9.85-22.2-6.36-.12h0ZM374.5,853.86l-12.31-29.08c-.8-1.53-3.68-1.59-4.98-.8-1.48.89-10.18,26.16-11.5,29.88l5.07-.33,2.95-8.21,12.22.33,2.92,8.09,5.64.12h-.01ZM456.58,847.39l-.42,5.07c8.24,5.5,26.38.97,19.43-11.49-2.92-5.24-17.85-6.31-13.33-12.01,1.8-2.27,8.66-.7,11.18.4l1.15-4.64c-7.24-1.81-18.64-3.3-18.08,7.22s15.1,7.64,15.12,14.38c-1.71,6.87-10.79,3.69-15.06,1.08h.01ZM609.21,823.63h-17.28v30.24h5.04v-13.68h9.36v-3.91l-8.7-.73-.67-7.61h12.24v-4.32h.01ZM681.2,823.63h-17.28v30.24h18.72v-4.32h-13.68v-9.36h9.36v-3.91l-8.69-.73-.67-7.61h12.24v-4.32h0ZM710.72,823.63v30.24h5.04v-20.88c1.32-.28,1.41.4,2.04,1.2,4.13,5.27,7.14,13.43,11.29,18.95l6.83.73v-30.24h-5.04v21.6l-13.07-21.48-7.09-.12h0ZM787.03,823.63h-23.04v4.32h9.36v25.92h5.04v-25.92h8.64v-4.32ZM831.67,823.63h-17.28v30.24h18.72v-4.32h-13.68v-9.36h9.36v-3.91l-8.69-.73-.67-7.61h12.24v-4.32h0ZM930.31,823.63h-23.04v4.32h9.36v25.92h5.04v-25.92h8.64v-4.32ZM980.7,853.86l-12.59-29.52-5.31-.61-11.62,30.13,5.66-.09,3.44-8.44,11.44.6,3.21,7.59,5.77.34ZM1009.5,823.63h-5.04v30.24h5.04v-30.24ZM1059.18,845.23c-1.21-.42-1.78-1.93-2.45-2.95-1.99-3.01-9.24-16.84-10.81-17.99-1.79-1.3-4.74-.45-6.9-.66v30.24h5.04v-21.6c1.21.42,1.78,1.93,2.45,2.95,1.99,3.01,9.24,16.84,10.81,17.99,1.79,1.3,4.74.45,6.9.66v-30.24h-5.04v21.6ZM1098.05,823.63v30.24h5.76v-18.72l8.56,18.27,5.03.36c2.5-6.14,4.59-13.46,8.72-18.63v18.72h5.04v-30.24l-6.36.12-9.49,22.92-10.91-22.92-6.37-.12h.02ZM1181.57,823.63h-18v30.24h18.72v-4.32h-12.96v-9.36l9.37-.41v-3.91h-9.38v-7.92h12.24v-4.32h.01ZM1231.25,845.23l-13.33-20.87-6.83-.73v30.24h5.04v-21.6l13.07,21.48,7.09.12v-30.24h-5.04v21.6ZM1287.4,823.63h-23.04v4.32h8.64v25.92h5.76v-25.92h8.64v-4.32Z"/>
  <path class="st0" d="M383.5,632.84h49.68c16.27,0,32.16,16.18,33.5,32.01,1.57,18.46-13.4,39.26-32.78,39.26h-50.4l-1.08-1.08v-69.12l1.08-1.08h0Z"/>
  <path class="st0" d="M202.43,704.12v-71.28h50.04c18.13,0,34.26,17.94,34.26,35.64s-15.83,35.64-33.54,35.64h-50.76Z"/>
  <path class="st0" d="M407.62,850.27v-22.32c7.21-.34,14.3-.71,15.15,8.24,1.07,11.23-4.28,15.34-15.15,14.08Z"/>
  <path class="st0" d="M232.46,828.1c17.27-3.96,16.86,24.37,1.34,22.12-9.59-1.39-9.21-20.32-1.34-22.12Z"/>
  <path class="st0" d="M544.21,828.12c15.67-3.22,15.96,19.85,5.43,21.98-14.67,2.98-14.8-20.06-5.43-21.98Z"/>
  <path class="st0" d="M873.25,835.68c-1.44,1.37-5.09.81-7.02.91v-8.65c5.5-1.95,11.79,3.21,7.02,7.74h0Z"/>
  <path class="st0" d="M969.9,840.9h-8.64l3.61-10.79c1.03-.81,4.1,9.98,5.03,10.79Z"/>
  <path class="st0" d="M360.09,830.83l3.61,10.07h-7.91c-.37-.35,2.18-8.19,2.71-9.16.46-.83-.03-1.21,1.6-.92h0Z"/>
</svg>